<?xml version="1.0" encoding="UTF-8" standalone="no"?>
<!-- Created with Inkscape (http://www.inkscape.org/) -->

<svg
   xmlns:dc="http://purl.org/dc/elements/1.1/"
   xmlns:cc="http://creativecommons.org/ns#"
   xmlns:rdf="http://www.w3.org/1999/02/22-rdf-syntax-ns#"
   xmlns:svg="http://www.w3.org/2000/svg"
   xmlns="http://www.w3.org/2000/svg"
   xmlns:sodipodi="http://sodipodi.sourceforge.net/DTD/sodipodi-0.dtd"
   xmlns:inkscape="http://www.inkscape.org/namespaces/inkscape"
   width="1052.3622"
   height="744.09448"
   id="svg2"
   sodipodi:version="0.32"
   inkscape:version="0.92.4 (5da689c313, 2019-01-14)"
   version="1.0"
   sodipodi:docname="altenbeuthen.svg"
   inkscape:output_extension="org.inkscape.output.svg.inkscape">
  <defs
     id="defs4">
    <linearGradient
       id="linearGradient2589">
      <stop
         id="stop2626"
         offset="0"
         style="stop-color:#653f21;stop-opacity:1;" />
      <stop
         id="stop2624"
         offset="1"
         style="stop-color:#653f21;stop-opacity:1;" />
    </linearGradient>
    <inkscape:perspective
       sodipodi:type="inkscape:persp3d"
       inkscape:vp_x="0 : 526.18109 : 1"
       inkscape:vp_y="0 : 1000 : 0"
       inkscape:vp_z="744.09448 : 526.18109 : 1"
       inkscape:persp3d-origin="372.04724 : 350.78739 : 1"
       id="perspective10" />
  </defs>
  <sodipodi:namedview
     id="base"
     pagecolor="#ffffff"
     bordercolor="#666666"
     borderopacity="1.0"
     gridtolerance="10000"
     guidetolerance="10"
     objecttolerance="10"
     inkscape:pageopacity="0.0"
     inkscape:pageshadow="2"
     inkscape:zoom="0.79915452"
     inkscape:cx="1216.8076"
     inkscape:cy="480.40338"
     inkscape:document-units="mm"
     inkscape:current-layer="layer1"
     showgrid="false"
     units="mm"
     inkscape:window-width="2616"
     inkscape:window-height="1589"
     inkscape:window-x="20"
     inkscape:window-y="42"
     showguides="true"
     inkscape:guide-bbox="true"
     inkscape:window-maximized="0">
    <inkscape:grid
       type="xygrid"
       id="grid2383"
       visible="true"
       enabled="true"
       units="mm"
       spacingx="3.5433071"
       spacingy="3.5433071"
       originx="0"
       originy="0" />
  </sodipodi:namedview>
  <metadata
     id="metadata7">
    <rdf:RDF>
      <cc:Work
         rdf:about="">
        <dc:format>image/svg+xml</dc:format>
        <dc:type
           rdf:resource="http://purl.org/dc/dcmitype/StillImage" />
        <dc:title></dc:title>
      </cc:Work>
    </rdf:RDF>
  </metadata>
  <g
     inkscape:label="Layer 1"
     inkscape:groupmode="layer"
     id="layer1">
    <g
       id="g29661"
       transform="matrix(0.65744529,0,0,0.65744529,29.097107,244.6219)">
      <path
         inkscape:export-ydpi="150"
         inkscape:export-xdpi="150"
         inkscape:export-filename="/Users/user/vector drawings/Typography/altenbeuthen.png"
         sodipodi:nodetypes="ccccccccccccccccccccc"
         id="path2388"
         d="m 27.986509,67.221719 -28.42187987,14.14836 14.14835987,14.1858 14.27352,0.08776 28.42192,14.148331 v 14.14836 l -28.42192,-14.14836 -28.42187987,14.14836 v 56.84376 l 14.14835987,14.14836 56.83984,0.0286 14.19664,14.19664 14.19664,-14.19664 -14.19664,-28.39328 -0.04436,-70.924091 z m 0,70.992131 28.42192,14.14836 v 14.14832 h -28.42192 z"
         style="display:inline;overflow:visible;visibility:visible;opacity:1;fill:none;fill-opacity:1;fill-rule:nonzero;stroke:#000000;stroke-width:8;stroke-linecap:round;stroke-linejoin:round;stroke-miterlimit:4;stroke-dasharray:none;stroke-dashoffset:0;stroke-opacity:1;marker:none;marker-start:none;marker-mid:none;marker-end:none;enable-background:accumulate"
         inkscape:connector-curvature="0" />
      <path
         inkscape:export-ydpi="150"
         inkscape:export-xdpi="150"
         inkscape:export-filename="/Users/user/vector drawings/Typography/altenbeuthen.png"
         sodipodi:nodetypes="ccccccccccccccccc"
         id="path2390"
         d="M 113.05079,-3.6444234 98.777227,10.503937 113.05079,24.777497 V 180.91006 l 14.13552,14.17692 56.73141,-0.0286 14.27352,-14.14832 V 81.496057 l -28.42188,-14.14836 -28.42189,14.14836 V 10.503937 Z M 169.76936,95.769577 V 166.6365 h -28.42189 v -56.71856 z"
         style="display:inline;overflow:visible;visibility:visible;opacity:1;fill:none;fill-opacity:1;fill-rule:nonzero;stroke:#000000;stroke-width:8;stroke-linecap:round;stroke-linejoin:round;stroke-miterlimit:4;stroke-dasharray:none;stroke-dashoffset:0;stroke-opacity:1;marker:none;marker-start:none;marker-mid:none;marker-end:none;enable-background:accumulate"
         inkscape:connector-curvature="0" />
      <path
         inkscape:export-ydpi="150"
         inkscape:export-xdpi="150"
         inkscape:export-filename="/Users/user/vector drawings/Typography/altenbeuthen.png"
         sodipodi:nodetypes="cccccccccccccc"
         id="path2392"
         d="m 286.52568,67.00951 -56.78664,28.39328 v 85.17989 l 14.19668,14.19668 h 42.58996 l 28.39328,-14.19668 V 152.1894 l -28.39328,14.19668 h -28.39332 v -56.7866 l 28.39332,-14.19669 h 14.19664 l 14.19664,-14.19664 z"
         style="display:inline;overflow:visible;visibility:visible;opacity:1;fill:none;fill-opacity:1;fill-rule:nonzero;stroke:#000000;stroke-width:8;stroke-linecap:round;stroke-linejoin:round;stroke-miterlimit:4;stroke-dasharray:none;stroke-dashoffset:0;stroke-opacity:1;marker:none;marker-start:none;marker-mid:none;marker-end:none;enable-background:accumulate"
         inkscape:connector-curvature="0" />
      <path
         inkscape:export-ydpi="150"
         inkscape:export-xdpi="150"
         inkscape:export-filename="/Users/user/vector drawings/Typography/altenbeuthen.png"
         sodipodi:nodetypes="ccccccccccccccccccc"
         id="path2394"
         d="m 396.49045,-3.8714796 -14.14832,14.1483606 14.14832,14.27356 v 56.71856 l -28.42188,-14.14836 -28.29668,14.14836 v 99.414009 l 14.14836,14.14832 56.79544,0.0286 14.19668,14.24496 14.14832,-14.27356 -14.14832,-28.36468 V 10.276881 Z m -28.42188,99.4140006 28.42188,14.148369 v 56.71856 h -28.42188 z"
         style="display:inline;overflow:visible;visibility:visible;opacity:1;fill:none;fill-opacity:1;fill-rule:nonzero;stroke:#000000;stroke-width:8;stroke-linecap:round;stroke-linejoin:round;stroke-miterlimit:4;stroke-dasharray:none;stroke-dashoffset:0;stroke-opacity:1;marker:none;marker-start:none;marker-mid:none;marker-end:none;enable-background:accumulate"
         inkscape:connector-curvature="0" />
      <path
         inkscape:export-ydpi="150"
         inkscape:export-xdpi="150"
         inkscape:export-filename="/Users/user/vector drawings/Typography/altenbeuthen.png"
         sodipodi:nodetypes="cccccccccccccccccccc"
         id="path2389"
         d="m 509.9803,67.825883 -28.42188,14.14836 -28.42188,14.27352 -0.0286,85.120727 14.19664,14.19668 h 42.58996 l 14.19664,14.19664 14.19668,-14.19664 -14.19668,-28.39328 -42.53276,-0.0572 v -14.14832 h 42.69544 l 14.14836,-14.14836 V 81.974243 Z m 0,28.42188 v 28.296727 h -28.42188 v -14.14836 z"
         style="display:inline;overflow:visible;visibility:visible;opacity:1;fill:none;fill-opacity:1;fill-rule:nonzero;stroke:#000000;stroke-width:8;stroke-linecap:round;stroke-linejoin:round;stroke-miterlimit:4;stroke-dasharray:none;stroke-dashoffset:0;stroke-opacity:1;marker:none;marker-start:none;marker-mid:none;marker-end:none;enable-background:accumulate"
         inkscape:connector-curvature="0" />
      <path
         inkscape:export-ydpi="150"
         inkscape:export-xdpi="150"
         inkscape:export-filename="/Users/user/vector drawings/Typography/altenbeuthen.png"
         id="path2395"
         d="M 623.41746,-3.1662383 566.6989,25.255683 v 49.58176 l -14.27356,7.1368 v 28.421887 l 14.27356,-7.13676 v 78.12888 l -14.27356,28.42188 14.27356,14.14836 14.14832,-14.14836 14.27356,-14.27356 V 88.985803 l 14.14832,-7.01156 h 14.14836 l 14.27356,-14.14836 -28.42192,-14.27352 -14.14832,7.13676 v -21.28512 l 28.29668,-14.14832 h 14.27356 l 14.14832,-14.27356 z"
         style="display:inline;overflow:visible;visibility:visible;opacity:1;fill:none;fill-opacity:1;fill-rule:nonzero;stroke:#000000;stroke-width:8;stroke-linecap:round;stroke-linejoin:round;stroke-miterlimit:4;stroke-dasharray:none;stroke-dashoffset:0;stroke-opacity:1;marker:none;marker-start:none;marker-mid:none;marker-end:none;enable-background:accumulate"
         inkscape:connector-curvature="0" />
      <path
         inkscape:export-ydpi="150"
         inkscape:export-xdpi="150"
         inkscape:export-filename="/Users/user/vector drawings/Typography/altenbeuthen.png"
         id="path2401"
         d="m 722.77626,53.552323 -28.29668,14.14832 v 14.27356 l -28.42192,-14.14836 -28.42188,14.14836 v 99.414007 l 14.27356,14.14832 h 42.57024 v 28.42192 l -28.42192,14.14832 v -14.14832 l -14.14832,-14.14836 -14.27356,28.29668 v 14.27356 l 28.42188,14.14832 56.7186,-28.42188 V 181.38821 152.96633 81.974203 l 14.27352,-14.27356 z m -56.7186,42.6954 28.42192,14.148367 v 42.57024 14.14832 h -28.42192 z"
         style="display:inline;overflow:visible;visibility:visible;opacity:1;fill:none;fill-opacity:1;fill-rule:nonzero;stroke:#000000;stroke-width:8;stroke-linecap:round;stroke-linejoin:round;stroke-miterlimit:4;stroke-dasharray:none;stroke-dashoffset:0;stroke-opacity:1;marker:none;marker-start:none;marker-mid:none;marker-end:none;enable-background:accumulate"
         inkscape:connector-curvature="0" />
      <path
         inkscape:export-ydpi="150"
         inkscape:export-xdpi="150"
         inkscape:export-filename="/Users/user/vector drawings/Typography/altenbeuthen.png"
         sodipodi:nodetypes="ccccccccccccccccc"
         id="path2408"
         d="m 793.94878,-3.1662383 -28.42188,14.1483613 -0.0927,156.189767 -14.19664,28.39328 14.19664,14.19664 28.39328,-28.39332 0.12128,-70.97236 28.42188,-14.148367 -0.14984,99.317407 14.2982,14.16808 14.09508,-28.36472 0.0532,-99.394287 -28.29668,-14.14836 -28.42188,14.14836 v -56.71856 l 14.14836,-14.27356 z"
         style="display:inline;overflow:visible;visibility:visible;opacity:1;fill:none;fill-opacity:1;fill-rule:nonzero;stroke:#000000;stroke-width:8;stroke-linecap:round;stroke-linejoin:round;stroke-miterlimit:4;stroke-dasharray:none;stroke-dashoffset:0;stroke-opacity:1;marker:none;marker-start:none;marker-mid:none;marker-end:none;enable-background:accumulate"
         inkscape:connector-curvature="0" />
      <path
         inkscape:export-ydpi="150"
         inkscape:export-xdpi="150"
         inkscape:export-filename="/Users/user/vector drawings/Typography/altenbeuthen.png"
         id="path2413"
         d="m 878.96402,-3.1662383 -14.14832,14.1483613 14.14832,14.27356 14.27356,14.14832 14.14836,-28.42188 z m 0,56.7186013 -14.14832,14.27352 14.14832,14.14836 V 195.53657 l 14.27356,14.27356 14.14836,-28.42188 V 67.825883 Z"
         style="display:inline;overflow:visible;visibility:visible;opacity:1;fill:none;fill-opacity:1;fill-rule:nonzero;stroke:#000000;stroke-width:8;stroke-linecap:round;stroke-linejoin:round;stroke-miterlimit:4;stroke-dasharray:none;stroke-dashoffset:0;stroke-opacity:1;marker:none;marker-start:none;marker-mid:none;marker-end:none;enable-background:accumulate"
         inkscape:connector-curvature="0" />
      <path
         inkscape:export-ydpi="150"
         inkscape:export-xdpi="150"
         inkscape:export-filename="/Users/user/vector drawings/Typography/altenbeuthen.png"
         id="path2417"
         d="m 949.95614,-3.1662383 -14.14832,14.1483613 14.14832,14.27356 14.27356,14.14832 14.14836,-28.42188 z m 0,56.7186013 -14.14832,14.27352 14.14832,14.14836 V 223.95849 l -28.29668,14.14832 v -14.14832 l -14.14832,-14.14836 -14.27356,28.29668 v 14.27356 l 28.42188,14.14832 56.7186,-28.42188 V 209.81013 195.53657 67.825883 Z"
         style="display:inline;overflow:visible;visibility:visible;opacity:1;fill:none;fill-opacity:1;fill-rule:nonzero;stroke:#000000;stroke-width:8;stroke-linecap:round;stroke-linejoin:round;stroke-miterlimit:4;stroke-dasharray:none;stroke-dashoffset:0;stroke-opacity:1;marker:none;marker-start:none;marker-mid:none;marker-end:none;enable-background:accumulate"
         inkscape:connector-curvature="0" />
      <path
         inkscape:export-ydpi="150"
         inkscape:export-xdpi="150"
         inkscape:export-filename="/Users/user/vector drawings/Typography/altenbeuthen.png"
         id="path2425"
         d="m 1044.3172,-7.3714068 -28.4219,14.14836 V 162.90952 l -14.2735,28.42188 14.2735,14.14836 28.2967,-28.42188 0.1252,-42.57024 28.4219,-14.14832 -0.1252,70.99208 14.2735,14.14836 14.1484,-28.42188 v -70.99212 l -14.0232,-7.011557 v -21.28513 l 14.1484,-14.14836 -14.1484,-14.27352 -28.4219,14.27352 v 35.30829 l -14.2735,7.136757 V 21.050513 l 14.1483,-14.2735598 z"
         style="display:inline;overflow:visible;visibility:visible;opacity:1;fill:none;fill-opacity:1;fill-rule:nonzero;stroke:#000000;stroke-width:8;stroke-linecap:round;stroke-linejoin:round;stroke-miterlimit:4;stroke-dasharray:none;stroke-dashoffset:0;stroke-opacity:1;marker:none;marker-start:none;marker-mid:none;marker-end:none;enable-background:accumulate"
         inkscape:connector-curvature="0" />
      <path
         inkscape:export-ydpi="150"
         inkscape:export-xdpi="150"
         inkscape:export-filename="/Users/user/vector drawings/Typography/altenbeuthen.png"
         sodipodi:nodetypes="cccccccccc"
         style="display:inline;overflow:visible;visibility:visible;opacity:1;fill:none;fill-opacity:1;fill-rule:nonzero;stroke:#000000;stroke-width:8;stroke-linecap:round;stroke-linejoin:round;stroke-miterlimit:4;stroke-dasharray:none;stroke-dashoffset:0;stroke-opacity:1;marker:none;marker-start:none;marker-mid:none;marker-end:none;enable-background:accumulate"
         d="m 1125.7634,-10.939587 28.4219,14.1483602 0.2307,170.3686468 -14.1967,28.39332 -14.1966,-14.19664 -0.2593,-56.85464 V 102.49758 17.482293 L 1111.6151,3.2087732 Z"
         id="path2431"
         inkscape:connector-curvature="0" />
      <path
         inkscape:export-ydpi="150"
         inkscape:export-xdpi="150"
         inkscape:export-filename="/Users/user/vector drawings/Typography/altenbeuthen.png"
         id="path2433"
         d="m 1182.7531,45.761293 -14.1483,14.14832 14.1483,14.27356 v 56.718567 28.42188 l -14.1483,28.42188 14.1483,14.27356 28.4219,-28.42188 0.1252,-56.84376 v -14.14836 l 28.4219,-14.148367 -0.1252,99.288807 14.2736,14.14836 14.1483,-28.29668 v -70.99212 l 28.4219,-14.148367 -0.2504,99.288807 14.3987,14.14836 14.0231,-28.42188 0.1254,-99.288807 -28.2968,-14.14836 -28.4219,14.14836 h -0.1252 l -28.1715,-14.14836 -28.5471,14.14836 v -14.27356 z"
         style="display:inline;overflow:visible;visibility:visible;opacity:1;fill:none;fill-opacity:1;fill-rule:nonzero;stroke:#000000;stroke-width:8;stroke-linecap:round;stroke-linejoin:round;stroke-miterlimit:4;stroke-dasharray:none;stroke-dashoffset:0;stroke-opacity:1;marker:none;marker-start:none;marker-mid:none;marker-end:none;enable-background:accumulate"
         inkscape:connector-curvature="0" />
      <path
         inkscape:export-ydpi="150"
         inkscape:export-xdpi="150"
         inkscape:export-filename="/Users/user/vector drawings/Typography/altenbeuthen.png"
         id="path2437"
         d="m 1353.2943,45.963373 -14.1482,14.14832 14.023,14.14836 V 159.4005 l -14.1482,28.42192 14.1482,14.14832 28.422,-28.29668 0.1252,-56.59336 0.1252,-0.1252 v -14.27356 l 28.2966,-14.148327 -0.1252,99.288807 14.2736,14.14832 14.1484,-28.29668 V 74.260053 l -28.2968,-14.14836 -28.4218,14.02316 v -14.02316 z"
         style="display:inline;overflow:visible;visibility:visible;opacity:1;fill:none;fill-opacity:1;fill-rule:nonzero;stroke:#000000;stroke-width:8;stroke-linecap:round;stroke-linejoin:round;stroke-miterlimit:4;stroke-dasharray:none;stroke-dashoffset:0;stroke-opacity:1;marker:none;marker-start:none;marker-mid:none;marker-end:none;enable-background:accumulate"
         inkscape:connector-curvature="0" />
      <path
         inkscape:export-ydpi="150"
         inkscape:export-xdpi="150"
         inkscape:export-filename="/Users/user/vector drawings/Typography/altenbeuthen.png"
         id="path2450"
         d="M 14.36321,286.58683 0.08981021,300.86035 V 414.42272 L 14.36321,428.57104 h 42.5704 14.1482 l 14.1484,-14.14832 v -99.41401 l -28.2966,-14.14836 -28.422,14.14836 14.1484,14.27352 h 14.2736 v 70.86693 h -28.422 V 343.4306 315.00871 Z"
         style="display:inline;overflow:visible;visibility:visible;opacity:1;fill:none;fill-opacity:1;fill-rule:nonzero;stroke:#000000;stroke-width:8;stroke-linecap:round;stroke-linejoin:round;stroke-miterlimit:4;stroke-dasharray:none;stroke-dashoffset:0;stroke-opacity:1;marker:none;marker-start:none;marker-mid:none;marker-end:none;enable-background:accumulate"
         inkscape:connector-curvature="0" />
      <path
         inkscape:export-ydpi="150"
         inkscape:export-xdpi="150"
         inkscape:export-filename="/Users/user/vector drawings/Typography/altenbeuthen.png"
         sodipodi:nodetypes="ccccccccccccccccccccc"
         id="path2459"
         d="m 113.65201,286.71203 -14.148198,14.14832 14.148198,14.27356 v 85.01525 28.42188 l 0.0316,71.01184 14.2736,14.14836 14.1484,-28.42188 0.0936,-56.61308 42.445,-0.12524 14.2736,-14.14832 v -99.41401 l -28.422,-14.14836 -28.4218,14.14836 v -14.14836 z m 56.8438,42.5702 v 70.86693 h -28.2966 l -0.1252,-56.71856 z"
         style="display:inline;overflow:visible;visibility:visible;opacity:1;fill:none;fill-opacity:1;fill-rule:nonzero;stroke:#000000;stroke-width:8;stroke-linecap:round;stroke-linejoin:round;stroke-miterlimit:4;stroke-dasharray:none;stroke-dashoffset:0;stroke-opacity:1;marker:none;marker-start:none;marker-mid:none;marker-end:none;enable-background:accumulate"
         inkscape:connector-curvature="0" />
      <path
         inkscape:export-ydpi="150"
         inkscape:export-xdpi="150"
         inkscape:export-filename="/Users/user/vector drawings/Typography/altenbeuthen.png"
         sodipodi:nodetypes="ccccccccccccccccccccc"
         id="path2474"
         d="m 312.43681,286.60451 14.1482,14.14836 -14.1482,14.27356 v 85.01525 85.34456 l 14.1966,14.19664 -14.1966,14.19664 -28.3934,-14.19664 -0.1538,-70.99412 -42.445,-0.1252 -14.2736,-14.14832 v -99.41405 l 28.422,-14.14832 28.4218,14.14832 v -14.14832 z m -56.8438,42.57024 v 70.86693 h 28.2966 l 0.1252,-56.71856 z"
         style="display:inline;overflow:visible;visibility:visible;opacity:1;fill:none;fill-opacity:1;fill-rule:nonzero;stroke:#000000;stroke-width:8;stroke-linecap:round;stroke-linejoin:round;stroke-miterlimit:4;stroke-dasharray:none;stroke-dashoffset:0;stroke-opacity:1;marker:none;marker-start:none;marker-mid:none;marker-end:none;enable-background:accumulate"
         inkscape:connector-curvature="0" />
      <path
         inkscape:export-ydpi="150"
         inkscape:export-xdpi="150"
         inkscape:export-filename="/Users/user/vector drawings/Typography/altenbeuthen.png"
         sodipodi:nodetypes="ccccccccccccccccccc"
         style="display:inline;overflow:visible;visibility:visible;opacity:1;fill:none;fill-opacity:1;fill-rule:nonzero;stroke:#000000;stroke-width:8;stroke-linecap:round;stroke-linejoin:round;stroke-miterlimit:4;stroke-dasharray:none;stroke-dashoffset:0;stroke-opacity:1;marker:none;marker-start:none;marker-mid:none;marker-end:none;enable-background:accumulate"
         d="m 354.99801,286.49903 -14.1482,14.14836 14.023,14.14832 0.1538,99.60725 -14.1482,28.42188 14.1482,14.14836 28.422,-28.29668 -0.0286,-71.06016 0.1252,-0.1252 V 343.2176 l 28.2966,-14.14833 -0.0286,28.54709 14.2736,14.14836 14.1484,-28.29668 -0.0966,-28.67233 -28.2968,-14.14832 -28.4218,14.02312 v -14.02312 z"
         id="path2476"
         inkscape:connector-curvature="0" />
      <path
         inkscape:export-ydpi="150"
         inkscape:export-xdpi="150"
         inkscape:export-filename="/Users/user/vector drawings/Typography/altenbeuthen.png"
         id="path2478"
         d="m 573.25385,247.90551 -14.2736,14.27352 14.2736,14.14836 v 35.55864 l -14.1484,7.0116 v 28.42189 l 14.1484,-7.1368 v 35.55868 14.27356 28.29668 l 56.7186,28.42188 28.42181,-14.14836 v -14.27352 l -14.2736,-28.29668 -14.14821,14.14832 v 14.14836 l -28.2968,-14.14836 v -78.12889 l 14.1484,-7.13676 h 14.1484 l 14.27341,-14.14836 -28.42181,-14.27356 -14.1484,7.1368 v -35.43348 z"
         style="display:inline;overflow:visible;visibility:visible;opacity:1;fill:none;fill-opacity:1;fill-rule:nonzero;stroke:#000000;stroke-width:8;stroke-linecap:round;stroke-linejoin:round;stroke-miterlimit:4;stroke-dasharray:none;stroke-dashoffset:0;stroke-opacity:1;marker:none;marker-start:none;marker-mid:none;marker-end:none;enable-background:accumulate"
         inkscape:connector-curvature="0" />
      <path
         inkscape:export-ydpi="150"
         inkscape:export-xdpi="150"
         inkscape:export-filename="/Users/user/vector drawings/Typography/altenbeuthen.png"
         sodipodi:nodetypes="cccccccccccccccccccc"
         style="display:inline;overflow:visible;visibility:visible;opacity:1;fill:none;fill-opacity:1;fill-rule:nonzero;stroke:#000000;stroke-width:8;stroke-linecap:round;stroke-linejoin:round;stroke-miterlimit:4;stroke-dasharray:none;stroke-dashoffset:0;stroke-opacity:1;marker:none;marker-start:none;marker-mid:none;marker-end:none;enable-background:accumulate"
         d="m 757.83235,439.24409 14.1484,-14.14836 -14.0232,-14.14832 -0.0768,-99.44457 14.1482,-14.22524 -14.1966,-14.19668 -28.3736,14.14836 -0.0482,70.89749 -0.1252,0.1252 v 14.27356 l -28.2968,14.14832 0.0572,-99.39629 -28.3932,-14.19664 -14.1968,14.19664 14.2362,14.25584 v 99.41401 l 28.2966,14.14832 28.422,-14.02312 v 14.02312 z"
         id="path2483"
         inkscape:connector-curvature="0" />
      <path
         inkscape:export-ydpi="150"
         inkscape:export-xdpi="150"
         inkscape:export-filename="/Users/user/vector drawings/Typography/altenbeuthen.png"
         sodipodi:nodetypes="cccccccccccccccc"
         id="path2487"
         d="m 796.63215,283.26316 -14.2736,14.14832 14.1484,14.27356 v 28.29669 l 42.5702,85.14044 28.5472,0.1252 42.5702,-85.26564 v -28.29669 l 14.1482,-14.27356 -14.2734,-14.14832 -28.2968,14.14832 v 42.57025 l -28.4218,56.84376 -28.422,-56.84376 v -42.57025 z"
         style="display:inline;overflow:visible;visibility:visible;opacity:1;fill:none;fill-opacity:1;fill-rule:nonzero;stroke:#000000;stroke-width:8;stroke-linecap:round;stroke-linejoin:round;stroke-miterlimit:4;stroke-dasharray:none;stroke-dashoffset:0;stroke-opacity:1;marker:none;marker-start:none;marker-mid:none;marker-end:none;enable-background:accumulate"
         inkscape:connector-curvature="0" />
      <path
         inkscape:export-ydpi="150"
         inkscape:export-xdpi="150"
         inkscape:export-filename="/Users/user/vector drawings/Typography/altenbeuthen.png"
         sodipodi:nodetypes="cccccccccccccccccccccccc"
         style="display:inline;overflow:visible;visibility:visible;opacity:1;fill:none;fill-opacity:1;fill-rule:nonzero;stroke:#000000;stroke-width:8;stroke-linecap:round;stroke-linejoin:round;stroke-miterlimit:4;stroke-dasharray:none;stroke-dashoffset:0;stroke-opacity:1;marker:none;marker-start:none;marker-mid:none;marker-end:none;enable-background:accumulate"
         d="m 952.68941,354.35558 0.1824,-42.61857 -14.3308,-14.2252 14.1484,-14.27356 28.57559,14.30216 -0.0286,70.96353 v 14.14832 l 28.422,14.14836 v -85.06361 l 14.1966,-28.39328 14.1966,14.19668 -0.097,85.11185 28.4218,14.14836 0.068,-85.06361 28.3932,-28.39328 14.1966,14.19668 -14.1966,28.39328 -0.1648,85.14045 -28.2966,14.14836 -28.4218,-14.14836 h -0.1252 l -28.1714,14.14836 -56.78659,-28.30556 z"
         id="path2494"
         inkscape:connector-curvature="0" />
      <path
         inkscape:export-ydpi="150"
         inkscape:export-xdpi="150"
         inkscape:export-filename="/Users/user/vector drawings/Typography/altenbeuthen.png"
         sodipodi:nodetypes="cccccccccccccccccccccccccccccc"
         id="path2529"
         d="m 1136.8753,283.42065 -14.1968,14.19668 14.1112,28.31636 v 28.42193 l 28.2964,14.14832 -28.2964,14.27356 0.086,42.60964 -14.3952,14.16608 14.2736,14.14836 28.5148,-14.11776 -0.057,-42.658 28.2967,-14.14832 h 0.1252 l 28.2968,14.14832 0.024,28.32528 28.4224,28.42188 14.148,-14.14836 -14.148,-28.42188 -0.024,-28.32524 -28.2972,-14.27356 28.2972,-14.14832 v -28.42193 l 14.1484,-14.14832 -14.1484,-14.27356 -28.2972,14.27356 v 28.42188 l -28.4216,14.14837 -28.5471,-14.14837 v -28.42188 z"
         style="display:inline;overflow:visible;visibility:visible;opacity:1;fill:none;fill-opacity:1;fill-rule:nonzero;stroke:#000000;stroke-width:8;stroke-linecap:round;stroke-linejoin:round;stroke-miterlimit:4;stroke-dasharray:none;stroke-dashoffset:0;stroke-opacity:1;marker:none;marker-start:none;marker-mid:none;marker-end:none;enable-background:accumulate"
         inkscape:connector-curvature="0" />
      <path
         inkscape:export-ydpi="150"
         inkscape:export-xdpi="150"
         inkscape:export-filename="/Users/user/vector drawings/Typography/altenbeuthen.png"
         sodipodi:nodetypes="cccccccccccccccccccccc"
         id="path2531"
         d="m 1285.8347,283.16204 -14.1484,14.14836 14.1484,14.27352 v 99.41405 l 28.2968,14.14832 28.422,-14.02312 0.01,42.61852 -28.2972,14.14832 v -14.14832 l -14.148,-14.14836 -14.2736,28.29668 v 14.27356 l 28.4216,14.14832 56.7188,-28.42188 -0.01,-156.18085 14.1484,-14.14836 -14.1484,-14.27356 -28.4216,14.27356 v 85.14049 l -28.422,14.02312 0.1248,-99.41401 z"
         style="display:inline;overflow:visible;visibility:visible;opacity:1;fill:none;fill-opacity:1;fill-rule:nonzero;stroke:#000000;stroke-width:8;stroke-linecap:round;stroke-linejoin:round;stroke-miterlimit:4;stroke-dasharray:none;stroke-dashoffset:0;stroke-opacity:1;marker:none;marker-start:none;marker-mid:none;marker-end:none;enable-background:accumulate"
         inkscape:connector-curvature="0" />
      <path
         inkscape:export-ydpi="150"
         inkscape:export-xdpi="150"
         inkscape:export-filename="/Users/user/vector drawings/Typography/altenbeuthen.png"
         sodipodi:nodetypes="cccccccccccccccccccccc"
         id="path2537"
         d="m 1427.4239,297.48844 -14.1968,-14.19668 -14.1964,14.19668 14.1964,28.39328 h 42.59 v 14.19665 l -28.3932,14.19664 -28.3932,14.19664 v 42.58996 l 14.1964,14.19664 h 56.7868 l 28.3936,14.19668 14.1964,-14.19668 -14.1964,-14.19664 -14.1972,-14.19664 h -56.7864 v -14.19664 l 56.7864,-28.39332 v -14.19664 -28.39333 l -14.1964,-14.1966 z"
         style="display:inline;overflow:visible;visibility:visible;opacity:1;fill:none;fill-opacity:1;fill-rule:nonzero;stroke:#000000;stroke-width:8;stroke-linecap:round;stroke-linejoin:round;stroke-miterlimit:4;stroke-dasharray:none;stroke-dashoffset:0;stroke-opacity:1;marker:none;marker-start:none;marker-mid:none;marker-end:none;enable-background:accumulate"
         inkscape:connector-curvature="0" />
      <path
         inkscape:export-ydpi="150"
         inkscape:export-xdpi="150"
         inkscape:export-filename="/Users/user/vector drawings/Typography/altenbeuthen.png"
         sodipodi:nodetypes="ccccccccccccccccccccccc"
         id="path2541"
         d="m 516.53638,297.05715 -56.71875,28.42188 -0.1252,42.44505 v 0.1252 l 28.4218,14.14836 28.42215,-14.14836 v 28.29668 l -42.51895,0.0286 h -0.1254 v 0.12524 l -14.1482,28.29668 14.1482,14.27352 14.2736,-14.27352 42.64428,-0.0286 14.148,-14.14832 v -56.8438 L 516.53638,339.6274 488.11423,353.77576 V 339.6274 l 28.42215,-14.14837 h 14.27353 l 14.148,-14.27352 z"
         style="display:inline;overflow:visible;visibility:visible;opacity:1;fill:none;fill-opacity:1;fill-rule:nonzero;stroke:#000000;stroke-width:8;stroke-linecap:round;stroke-linejoin:round;stroke-miterlimit:4;stroke-dasharray:none;stroke-dashoffset:0;stroke-opacity:1;marker:none;marker-start:none;marker-mid:none;marker-end:none;enable-background:accumulate"
         inkscape:connector-curvature="0" />
      <path
         inkscape:export-ydpi="150"
         inkscape:export-xdpi="150"
         inkscape:export-filename="/Users/user/vector drawings/Typography/altenbeuthen.png"
         style="display:inline;overflow:visible;visibility:visible;opacity:1;fill:none;fill-opacity:1;fill-rule:nonzero;stroke:#000000;stroke-width:8;stroke-linecap:round;stroke-linejoin:round;stroke-miterlimit:4;stroke-dasharray:none;stroke-dashoffset:0;stroke-opacity:1;marker:none;marker-start:none;marker-mid:none;marker-end:none;enable-background:accumulate"
         d="m 27.986509,-212.63587 -28.42187987,14.14832 14.14831987,14.1858 14.27356,0.0878 28.421884,14.14832 v 14.14836 l -28.421884,-14.14836 -28.42187987,14.14836 v 56.843762 l 14.14831987,14.14836 56.839844,0.02856 14.19664,14.19664 14.19664,-14.19664 -14.19664,-28.393282 -0.04436,-70.92408 z m 0,70.99208 28.421884,14.14836 v 14.14836 H 27.986509 Z"
         id="path2550"
         sodipodi:nodetypes="ccccccccccccccccccccc"
         inkscape:connector-curvature="0" />
      <path
         inkscape:export-ydpi="150"
         inkscape:export-xdpi="150"
         inkscape:export-filename="/Users/user/vector drawings/Typography/altenbeuthen.png"
         id="path2552"
         d="m 98.853433,-283.45447 28.421887,14.14832 0.23068,170.368682 -14.19664,28.39332 -14.196647,-14.19668 -0.25928,-56.854642 v -28.42188 -85.01524 l -14.14836,-14.27356 z"
         style="display:inline;overflow:visible;visibility:visible;opacity:1;fill:none;fill-opacity:1;fill-rule:nonzero;stroke:#000000;stroke-width:8;stroke-linecap:round;stroke-linejoin:round;stroke-miterlimit:4;stroke-dasharray:none;stroke-dashoffset:0;stroke-opacity:1;marker:none;marker-start:none;marker-mid:none;marker-end:none;enable-background:accumulate"
         sodipodi:nodetypes="cccccccccc"
         inkscape:connector-curvature="0" />
      <path
         inkscape:export-ydpi="150"
         inkscape:export-xdpi="150"
         inkscape:export-filename="/Users/user/vector drawings/Typography/altenbeuthen.png"
         style="display:inline;overflow:visible;visibility:visible;opacity:1;fill:none;fill-opacity:1;fill-rule:nonzero;stroke:#000000;stroke-width:8;stroke-linecap:round;stroke-linejoin:round;stroke-miterlimit:4;stroke-dasharray:none;stroke-dashoffset:0;stroke-opacity:1;marker:none;marker-start:none;marker-mid:none;marker-end:none;enable-background:accumulate"
         d="m 155.71692,-269.37419 -14.27356,14.27356 14.27356,14.14836 v 35.55864 l -14.14836,7.01156 v 28.42192 l 14.14836,-7.1368 v 35.55868 14.27356 28.296682 l 56.71856,28.42188 28.42188,-14.14836 v -14.27352 l -14.27352,-28.296682 -14.14836,14.14832 v 14.148362 L 184.1388,-113.11639 v -78.12888 l 14.14832,-7.1368 h 14.14836 l 14.27356,-14.14832 -28.42192,-14.27356 -14.14832,7.1368 v -35.43348 z"
         id="path2554"
         inkscape:connector-curvature="0" />
      <path
         inkscape:export-ydpi="150"
         inkscape:export-xdpi="150"
         inkscape:export-filename="/Users/user/vector drawings/Typography/altenbeuthen.png"
         style="display:inline;overflow:visible;visibility:visible;opacity:1;fill:none;fill-opacity:1;fill-rule:nonzero;stroke:#000000;stroke-width:8;stroke-linecap:round;stroke-linejoin:round;stroke-miterlimit:4;stroke-dasharray:none;stroke-dashoffset:0;stroke-opacity:1;marker:none;marker-start:none;marker-mid:none;marker-end:none;enable-background:accumulate"
         d="m 297.74948,-212.57671 -28.42192,14.14836 -28.42188,14.27352 -0.0286,85.120722 14.19668,14.19664 h 42.58992 l 14.19668,14.19668 14.19664,-14.19668 -14.19664,-28.393282 -42.5328,-0.0572 v -14.14836 H 312.023 l 14.14836,-14.14832 v -56.84376 z m 0,28.42188 v 28.29668 h -28.42192 v -14.14832 z"
         id="path2556"
         sodipodi:nodetypes="cccccccccccccccccccc"
         inkscape:connector-curvature="0" />
      <path
         inkscape:export-ydpi="150"
         inkscape:export-xdpi="150"
         inkscape:export-filename="/Users/user/vector drawings/Typography/altenbeuthen.png"
         style="display:inline;overflow:visible;visibility:visible;opacity:1;fill:none;fill-opacity:1;fill-rule:nonzero;stroke:#000000;stroke-width:8;stroke-linecap:round;stroke-linejoin:round;stroke-miterlimit:4;stroke-dasharray:none;stroke-dashoffset:0;stroke-opacity:1;marker:none;marker-start:none;marker-mid:none;marker-end:none;enable-background:accumulate"
         d="m 340.33052,-226.89171 -14.14836,14.14832 14.02316,14.14836 v 85.14044 l -14.14836,28.421882 14.14836,14.14836 28.42183,-28.29668 0.1252,-56.593362 0.1252,-0.1252 v -14.27356 l 28.2966,-14.14836 -0.1252,99.288802 14.2736,14.14836 14.1483,-28.29668 v -99.414002 l -28.2967,-14.14836 -28.4218,14.02312 v -14.02312 z"
         id="path2558"
         inkscape:connector-curvature="0" />
      <path
         inkscape:export-ydpi="150"
         inkscape:export-xdpi="150"
         inkscape:export-filename="/Users/user/vector drawings/Typography/altenbeuthen.png"
         style="display:inline;overflow:visible;visibility:visible;opacity:1;fill:none;fill-opacity:1;fill-rule:nonzero;stroke:#000000;stroke-width:8;stroke-linecap:round;stroke-linejoin:round;stroke-miterlimit:4;stroke-dasharray:none;stroke-dashoffset:0;stroke-opacity:1;marker:none;marker-start:none;marker-mid:none;marker-end:none;enable-background:accumulate"
         d="m 439.85185,-283.49395 -14.2735,14.14836 14.2735,14.27352 v 156.132602 l 14.1355,14.17688 56.7314,-0.02856 14.2736,-14.14832 v -99.414002 l -28.4219,-14.14836 -28.4219,14.14836 v -70.99212 z m 56.7186,99.414 v 70.86692 h -28.4219 v -56.71856 z"
         id="path2560"
         sodipodi:nodetypes="ccccccccccccccccc"
         inkscape:connector-curvature="0" />
      <path
         inkscape:export-ydpi="150"
         inkscape:export-xdpi="150"
         inkscape:export-filename="/Users/user/vector drawings/Typography/altenbeuthen.png"
         id="path2562"
         d="m 723.69715,-70.460428 14.1483,-14.14832 -14.0231,-14.14836 -0.1055,-85.381962 14.1483,-14.22524 -14.1966,-14.19664 -28.3736,14.14832 -0.0197,56.83488 -0.1252,0.1252 v 14.27356 l -28.2967,14.14836 0.0286,-85.33372 -28.3933,-14.1966 -14.1967,14.1966 14.2361,14.25584 0.0286,85.351402 28.2967,14.14836 28.4219,-14.02316 v 14.02316 z"
         style="display:inline;overflow:visible;visibility:visible;opacity:1;fill:none;fill-opacity:1;fill-rule:nonzero;stroke:#000000;stroke-width:8;stroke-linecap:round;stroke-linejoin:round;stroke-miterlimit:4;stroke-dasharray:none;stroke-dashoffset:0;stroke-opacity:1;marker:none;marker-start:none;marker-mid:none;marker-end:none;enable-background:accumulate"
         sodipodi:nodetypes="cccccccccccccccccccc"
         inkscape:connector-curvature="0" />
      <path
         inkscape:export-ydpi="150"
         inkscape:export-xdpi="150"
         inkscape:export-filename="/Users/user/vector drawings/Typography/altenbeuthen.png"
         style="display:inline;overflow:visible;visibility:visible;opacity:1;fill:none;fill-opacity:1;fill-rule:nonzero;stroke:#000000;stroke-width:8;stroke-linecap:round;stroke-linejoin:round;stroke-miterlimit:4;stroke-dasharray:none;stroke-dashoffset:0;stroke-opacity:1;marker:none;marker-start:none;marker-mid:none;marker-end:none;enable-background:accumulate"
         d="m 595.98445,-212.53039 -28.4219,14.14832 -28.4219,14.27356 -0.0286,85.120722 14.1967,14.19664 h 42.5899 l 14.1967,14.19668 14.1966,-14.19668 -14.1966,-28.393282 -42.5328,-0.0572 v -14.14836 h 42.6954 l 14.1484,-14.14832 v -56.8438 z m 0,28.42188 v 28.29668 h -28.4219 v -14.14832 z"
         id="path2564"
         sodipodi:nodetypes="cccccccccccccccccccc"
         inkscape:connector-curvature="0" />
      <path
         inkscape:export-ydpi="150"
         inkscape:export-xdpi="150"
         inkscape:export-filename="/Users/user/vector drawings/Typography/altenbeuthen.png"
         style="display:inline;overflow:visible;visibility:visible;opacity:1;fill:none;fill-opacity:1;fill-rule:nonzero;stroke:#000000;stroke-width:8;stroke-linecap:round;stroke-linejoin:round;stroke-miterlimit:4;stroke-dasharray:none;stroke-dashoffset:0;stroke-opacity:1;marker:none;marker-start:none;marker-mid:none;marker-end:none;enable-background:accumulate"
         d="m 752.06185,-269.49051 -14.2736,14.27352 14.2736,14.14836 v 35.55864 l -14.1484,7.0116 v 28.42188 l 14.1484,-7.1368 v 35.55868 14.27356 28.296682 l 56.7185,28.42188 28.4219,-14.14836 v -14.27352 l -14.2735,-28.296682 -14.1484,14.14832 v 14.148362 l -28.2966,-14.148362 v -78.12888 l 14.1483,-7.13676 h 14.1483 l 14.2736,-14.14836 -28.4219,-14.27356 -14.1483,7.1368 v -35.43348 z"
         id="path2566"
         inkscape:connector-curvature="0" />
      <path
         inkscape:export-ydpi="150"
         inkscape:export-xdpi="150"
         inkscape:export-filename="/Users/user/vector drawings/Typography/altenbeuthen.png"
         style="display:inline;overflow:visible;visibility:visible;opacity:1;fill:none;fill-opacity:1;fill-rule:nonzero;stroke:#000000;stroke-width:8;stroke-linecap:round;stroke-linejoin:round;stroke-miterlimit:4;stroke-dasharray:none;stroke-dashoffset:0;stroke-opacity:1;marker:none;marker-start:none;marker-mid:none;marker-end:none;enable-background:accumulate"
         d="m 879.96575,-283.59055 -28.4219,14.14836 -0.0927,156.18972 -14.1966,28.393282 14.1966,14.19668 28.3933,-28.39332 0.1213,-70.972362 28.4219,-14.14836 -0.1499,99.317362 14.2982,14.16812 14.0951,-28.36472 0.0533,-99.394282 -28.2967,-14.14836 -28.4219,14.14836 v -56.7186 l 14.1484,-14.27352 z"
         id="path2568"
         sodipodi:nodetypes="ccccccccccccccccc"
         inkscape:connector-curvature="0" />
      <path
         inkscape:export-ydpi="150"
         inkscape:export-xdpi="150"
         inkscape:export-filename="/Users/user/vector drawings/Typography/altenbeuthen.png"
         sodipodi:nodetypes="cccccccccccccccccccc"
         id="path2570"
         d="m 1007.6873,-212.53039 -28.42187,14.14832 -28.4219,14.27356 -0.0286,85.120722 14.1966,14.19664 h 42.58997 l 14.1966,14.19668 14.1967,-14.19668 -14.1967,-28.393282 -42.53267,-0.0572 v -14.14836 h 42.69537 l 14.1483,-14.14832 v -56.8438 z m 0,28.42188 v 28.29668 h -28.42187 v -14.14832 z"
         style="display:inline;overflow:visible;visibility:visible;opacity:1;fill:none;fill-opacity:1;fill-rule:nonzero;stroke:#000000;stroke-width:8;stroke-linecap:round;stroke-linejoin:round;stroke-miterlimit:4;stroke-dasharray:none;stroke-dashoffset:0;stroke-opacity:1;marker:none;marker-start:none;marker-mid:none;marker-end:none;enable-background:accumulate"
         inkscape:connector-curvature="0" />
      <path
         inkscape:export-ydpi="150"
         inkscape:export-xdpi="150"
         inkscape:export-filename="/Users/user/vector drawings/Typography/altenbeuthen.png"
         id="path2572"
         d="m 1050.4793,-226.66987 -14.1484,14.14832 14.0232,14.14836 v 85.14044 l -14.1484,28.421882 14.1484,14.14836 28.4219,-28.29668 0.1252,-56.593362 0.1252,-0.1252 v -14.27356 l 28.2967,-14.14836 -0.1252,99.288802 14.2735,14.14836 14.1483,-28.29668 v -99.414002 l -28.2966,-14.14836 -28.4219,14.02316 v -14.02316 z"
         style="display:inline;overflow:visible;visibility:visible;opacity:1;fill:none;fill-opacity:1;fill-rule:nonzero;stroke:#000000;stroke-width:8;stroke-linecap:round;stroke-linejoin:round;stroke-miterlimit:4;stroke-dasharray:none;stroke-dashoffset:0;stroke-opacity:1;marker:none;marker-start:none;marker-mid:none;marker-end:none;enable-background:accumulate"
         inkscape:connector-curvature="0" />
      <path
         inkscape:export-ydpi="150"
         inkscape:export-xdpi="150"
         inkscape:export-filename="/Users/user/vector drawings/Typography/altenbeuthen.png"
         sodipodi:nodetypes="cccccc"
         style="display:inline;overflow:visible;visibility:visible;opacity:1;fill:none;fill-opacity:1;fill-rule:nonzero;stroke:#000000;stroke-width:8;stroke-linecap:round;stroke-linejoin:round;stroke-miterlimit:4;stroke-dasharray:none;stroke-dashoffset:0;stroke-opacity:1;marker:none;marker-start:none;marker-mid:none;marker-end:none;enable-background:accumulate"
         d="m 1197.6129,-198.50072 -14.1484,-14.1483 -14.2736,14.1483 -14.1483,14.2737 28.4219,14.1483 z"
         id="path2628"
         inkscape:connector-curvature="0" />
      <path
         inkscape:export-ydpi="150"
         inkscape:export-xdpi="150"
         inkscape:export-filename="/Users/user/vector drawings/Typography/altenbeuthen.png"
         id="path2630"
         d="m 1155.143,-106.29917 14.1484,14.148301 14.2735,-14.148301 14.1484,-14.2737 -28.4219,-14.1483 z"
         style="display:inline;overflow:visible;visibility:visible;opacity:1;fill:none;fill-opacity:1;fill-rule:nonzero;stroke:#000000;stroke-width:8;stroke-linecap:round;stroke-linejoin:round;stroke-miterlimit:4;stroke-dasharray:none;stroke-dashoffset:0;stroke-opacity:1;marker:none;marker-start:none;marker-mid:none;marker-end:none;enable-background:accumulate"
         sodipodi:nodetypes="cccccc"
         inkscape:connector-curvature="0" />
      <path
         inkscape:export-ydpi="150"
         inkscape:export-xdpi="150"
         inkscape:export-filename="/Users/user/vector drawings/Typography/altenbeuthen.png"
         style="display:inline;overflow:visible;visibility:visible;opacity:1;fill:none;fill-opacity:1;fill-rule:nonzero;stroke:#000000;stroke-width:4;stroke-linecap:round;stroke-linejoin:round;stroke-miterlimit:4;stroke-dasharray:none;stroke-dashoffset:0;stroke-opacity:1;marker:none;marker-start:none;marker-mid:none;marker-end:none;enable-background:accumulate"
         d="m 1275.2753,566.67756 -7.0742,7.07414 7.0742,7.13675 v 42.50765 14.21095 l 0.1252,28.42191 7.0742,7.13678 7.1367,-14.21096 -0.1252,-85.14048 7.0742,7.07415 v 78.06633 l 7.0742,7.07418 h 28.3593 l 7.1367,-7.07418 v -49.70703 l -14.2109,-7.07415 -14.2109,7.07415 V 573.7517 l -14.1484,-7.07414 -7.0742,7.07414 z m 170.3435,7.13674 -7.1368,7.13676 7.1368,7.07419 v 17.7793 l -7.0742,3.5058 -14.1484,-7.07415 -14.2109,7.01155 v -7.01155 l -14.2109,-7.0742 -7.0742,7.0742 7.0116,7.07415 v 56.78121 l 7.1367,7.07418 7.0742,-14.21096 0.063,-28.23408 0.063,-0.0626 v -7.1368 l 14.1483,-7.07416 v 14.27355 l 7.1368,7.07416 7.0742,-14.14836 v -0.12519 l 7.0116,-3.56841 v 17.77935 7.1368 14.14835 l 28.3592,14.21094 14.211,-7.07418 v -7.13676 l -7.1368,-14.14835 -7.0742,7.07415 v 7.0742 l -14.1483,-7.0742 v -39.06445 l 7.0742,-3.5684 h 7.0741 l 7.1368,-7.07415 -14.2109,-7.1368 -7.0742,3.5684 v -17.71674 z m -205.777,28.29671 -14.2109,7.07414 7.0741,7.0742 7.1368,0.0626 14.211,7.07415 v 7.0742 l -14.211,-7.0742 -14.2109,7.0742 v 14.2735 l -14.2736,7.1368 h -14.2109 v -28.4219 l 14.2109,-7.07414 h 7.0742 l 7.1368,-7.07421 -14.211,-7.13675 -28.4219,14.21096 v 42.57022 l 7.1368,7.13678 h 21.2851 l 14.3362,-7.13678 7.0115,7.01158 h 28.422 l 7.0741,7.07416 7.1368,-7.07416 -7.1368,-14.21096 v -35.43345 z m 134.7848,0.0626 -14.2108,7.07415 -14.211,7.13681 v 42.57022 l 7.1368,7.07418 h 21.285 l 7.0742,7.07416 7.1368,-7.07416 -7.1368,-14.21096 h -21.285 v -7.0742 h 21.3476 l 7.0742,-7.07415 v -28.4219 z m -49.7069,14.21096 V 651.818 h -14.2109 v -28.3593 z m 49.7069,0 v 14.14835 h -14.2108 v -7.07421 z m -134.7848,21.22249 14.211,7.07415 v 7.0742 h -14.211 z"
         id="path2428"
         inkscape:connector-curvature="0" />
    </g>
  </g>
</svg>
