<?xml version="1.0" encoding="UTF-8" standalone="no"?>
<!-- Created with Inkscape (http://www.inkscape.org/) -->

<svg
   xmlns:dc="http://purl.org/dc/elements/1.1/"
   xmlns:cc="http://creativecommons.org/ns#"
   xmlns:rdf="http://www.w3.org/1999/02/22-rdf-syntax-ns#"
   xmlns:svg="http://www.w3.org/2000/svg"
   xmlns="http://www.w3.org/2000/svg"
   xmlns:sodipodi="http://sodipodi.sourceforge.net/DTD/sodipodi-0.dtd"
   xmlns:inkscape="http://www.inkscape.org/namespaces/inkscape"
   width="1052.3622"
   height="744.09448"
   id="svg2"
   sodipodi:version="0.32"
   inkscape:version="0.92.4 (5da689c313, 2019-01-14)"
   version="1.0"
   sodipodi:docname="Markus2.svg"
   inkscape:output_extension="org.inkscape.output.svg.inkscape">
  <defs
     id="defs4">
    <inkscape:perspective
       sodipodi:type="inkscape:persp3d"
       inkscape:vp_x="0 : 526.18109 : 1"
       inkscape:vp_y="0 : 1000 : 0"
       inkscape:vp_z="744.09448 : 526.18109 : 1"
       inkscape:persp3d-origin="372.04724 : 350.78739 : 1"
       id="perspective10" />
  </defs>
  <sodipodi:namedview
     id="base"
     pagecolor="#ffffff"
     bordercolor="#666666"
     borderopacity="1.0"
     gridtolerance="10000"
     guidetolerance="10"
     objecttolerance="10"
     inkscape:pageopacity="0.0"
     inkscape:pageshadow="2"
     inkscape:zoom="0.91903656"
     inkscape:cx="518.4259"
     inkscape:cy="229.31241"
     inkscape:document-units="mm"
     inkscape:current-layer="layer1"
     showgrid="true"
     units="mm"
     inkscape:window-width="2423"
     inkscape:window-height="1470"
     inkscape:window-x="61"
     inkscape:window-y="22"
     inkscape:snap-bbox="true"
     showguides="true"
     inkscape:guide-bbox="true"
     inkscape:window-maximized="0">
    <inkscape:grid
       type="xygrid"
       id="grid2383"
       visible="true"
       enabled="true"
       units="mm"
       spacingx="3.5433071"
       spacingy="3.5433071"
       originx="0"
       originy="0" />
  </sodipodi:namedview>
  <metadata
     id="metadata7">
    <rdf:RDF>
      <cc:Work
         rdf:about="">
        <dc:format>image/svg+xml</dc:format>
        <dc:type
           rdf:resource="http://purl.org/dc/dcmitype/StillImage" />
        <dc:title></dc:title>
      </cc:Work>
    </rdf:RDF>
  </metadata>
  <g
     inkscape:label="Layer 1"
     inkscape:groupmode="layer"
     id="layer1">
    <g
       id="g36255"
       transform="matrix(0.30602089,0,0,0.30602089,16.546864,-98.823967)">
      <path
         inkscape:connector-curvature="0"
         inkscape:export-ydpi="150"
         inkscape:export-xdpi="150"
         inkscape:export-filename="/Users/user/vector drawings/Typography/markus.png"
         id="path2398"
         d="m 1488.1778,2250.0091 c -9.7794,3e-4 -17.7188,7.9391 -17.7187,17.7187 v 17.7188 c 10e-5,9.7793 7.9392,17.7187 17.7187,17.7187 h 35.4376 c 9.7795,0 17.7186,-7.9392 17.7187,-17.7187 10e-5,-9.778 7.9411,-17.7188 17.7187,-17.7188 9.7779,0 17.7189,7.941 17.7188,17.7188 v 106.2812 c 10e-5,9.7778 -7.941,17.7188 -17.7188,17.7188 h -0.031 -17.7188 c -19.5564,0 -35.4062,39.696 -35.4062,88.5937 l 0.062,106.2813 h -0.031 c 0,9.7777 -7.9383,17.7184 -17.7187,17.7187 v 17.6875 h 34.8125 c 0.1979,0.01 0.3942,0.031 0.5938,0.031 0.021,10e-5 0.041,0 0.062,0 h 35.4063 0.5937 c 0.1163,0 0.2278,-0.025 0.3438,-0.031 h 34.4688 v -17.6875 c -9.6011,-1e-4 -17.404,-7.657 -17.6876,-17.1875 l -0.031,-142.2187 c 10e-5,-19.5579 15.8484,-35.4688 35.4062,-35.4688 h 0.031 c 19.5566,0 35.4061,-39.6961 35.4063,-88.5937 l 0.031,-35.4063 v -35.4375 c 2e-4,-9.7795 -7.9392,-17.7185 -17.7188,-17.7187 z"
         style="display:inline;overflow:visible;visibility:visible;opacity:1;fill:#000000;fill-opacity:1;fill-rule:nonzero;stroke:none;stroke-width:3.54330707;stroke-linecap:round;stroke-linejoin:round;stroke-miterlimit:4;stroke-dasharray:none;stroke-dashoffset:0;stroke-opacity:1;marker:none;marker-start:none;marker-mid:none;marker-end:none;enable-background:accumulate" />
      <path
         inkscape:connector-curvature="0"
         inkscape:export-ydpi="150"
         inkscape:export-xdpi="150"
         inkscape:export-filename="/Users/user/vector drawings/Typography/markus.png"
         sodipodi:nodetypes="cscccssccscccccccccccccccccc"
         id="path2406"
         d="m 283.48568,1217.139 c -48.8977,0 -88.6007,17.7163 -88.5938,53.1563 0.002,9.7795 7.9393,17.7188 17.7188,17.7187 h 17.7187 0.0313 c 19.559,1e-4 35.4062,-15.8784 35.4062,-35.4375 0,-9.7795 7.9393,-17.7187 17.7188,-17.7187 9.7795,0 17.7188,7.9392 17.7187,17.7187 v 35.4375 c 10e-5,9.7777 -7.9386,17.7188 -17.7187,17.7188 -48.8977,0 -88.6007,17.7052 -88.5938,53.1562 v 53.1563 c -0.007,35.4085 39.7216,53.125 88.5938,53.125 h 88.5937 17.6875 v -17.6875 c -9.7777,0 -17.6875,-7.9699 -17.6875,-17.75 v -124 -35.4375 c -0.029,-35.44 -39.6961,-53.1563 -88.5937,-53.1563 z m 0,106.3125 c 9.7795,0 17.7187,7.9393 17.7187,17.7188 v 88.5625 c 0,9.7795 -7.9392,17.7188 -17.7187,17.7187 v 0.031 c -9.7795,0 -17.7188,-7.9392 -17.7188,-17.7188 V 1341.17 c 0,-9.7795 7.9392,-17.7187 17.7188,-17.7188 z"
         style="fill:#000000;fill-opacity:1;fill-rule:nonzero;stroke:none;stroke-width:3.54330707;stroke-linecap:round;stroke-linejoin:round;stroke-miterlimit:4;stroke-opacity:1" />
      <path
         inkscape:connector-curvature="0"
         inkscape:export-ydpi="150"
         inkscape:export-xdpi="150"
         inkscape:export-filename="/Users/user/vector drawings/Typography/markus.png"
         sodipodi:nodetypes="ccccscccccccccccccccccccc"
         id="path2458"
         d="m 903.58258,1075.456 v 17.7187 c 9.7802,0 17.7188,7.9411 17.7188,17.7188 l 0.006,88.558 c 0,9.7777 -7.9386,17.7188 -17.7187,17.7188 -48.8977,0 -88.6007,17.7052 -88.5938,53.1562 l -0.0312,141.7188 c -0.007,35.4084 39.7215,53.125 88.5937,53.125 h 88.5938 17.68752 v -17.6875 c -9.7777,0 -17.68752,-7.9699 -17.68752,-17.75 v -124 l 0.0251,-212.5893 c -0.017,-9.7657 -7.9516,-17.6876 -17.7188,-17.6875 h -53.1562 z m 0.006,159.433 c 9.7795,0 17.7187,7.9393 17.7187,17.7188 l -0.0312,177.125 c 0,9.7795 -7.9392,17.7188 -17.7188,17.7187 v 0.031 c -9.7795,0 -17.7187,-7.9392 -17.7187,-17.7188 l 0.0312,-177.1562 c 0,-9.7795 7.9392,-17.7187 17.7188,-17.7188 z"
         style="fill:#000000;fill-opacity:1;fill-rule:nonzero;stroke:none;stroke-width:3.54330707;stroke-linecap:round;stroke-linejoin:round;stroke-miterlimit:4;stroke-opacity:1" />
      <path
         inkscape:connector-curvature="0"
         inkscape:export-ydpi="150"
         inkscape:export-xdpi="150"
         inkscape:export-filename="/Users/user/vector drawings/Typography/markus.png"
         sodipodi:nodetypes="cccccccsssssssssssssccccsccccccccccccccccccc"
         id="path2477"
         d="m 407.51788,1075.456 v 17.7187 c 9.7802,0 17.7188,7.9411 17.7188,17.7188 v 70.8125 h -0.0625 l 0.0312,124.0312 0.002,113.3147 c -4e-4,2.215 0.1663,4.361 0.4687,6.4375 0.3023,2.0765 0.7536,4.0933 1.3438,6.0313 0.5903,1.9381 1.3243,3.7941 2.1875,5.5937 0.8632,1.7996 1.8474,3.5577 2.9687,5.2188 1.1213,1.6612 2.3855,3.2273 3.75,4.75 1.3645,1.5227 2.8447,2.9908 4.4375,4.375 1.5927,1.3843 3.2877,2.6917 5.0938,3.9375 1.8062,1.2459 3.714,2.4238 5.7187,3.5312 2.0046,1.1074 4.0931,2.156 6.2813,3.125 2.1882,0.9689 4.4868,1.857 6.8437,2.6875 2.3569,0.8305 4.7706,1.5892 7.2813,2.2813 2.5107,0.6921 5.1004,1.3214 7.75,1.875 5.2992,1.1074 10.8597,1.9464 16.625,2.5 5.7653,0.5537 11.7315,0.8125 17.8437,0.8125 v 0.031 c 48.8723,0 88.6007,-17.7165 88.5938,-53.125 l -0.0327,-148.7834 c 0.007,-35.4511 -39.6961,-53.1563 -88.5938,-53.1563 -9.7801,0 -17.7188,-7.941 -17.7187,-17.7187 v -17.75 h 0.0625 v -88.5625 c -0.017,-9.7657 -7.9516,-17.6875 -17.7188,-17.6875 h -53.1562 z m 106.25,159.4375 c 9.7796,0 17.7188,7.9392 17.7188,17.7187 l 0.0327,184.221 c 0,9.7795 -7.9392,17.7187 -17.7188,17.7187 v -0.031 c -9.7795,0 -17.7187,-7.9392 -17.7187,-17.7188 l -0.0327,-184.1897 c 0,-9.7795 7.9392,-17.7187 17.7187,-17.7187 z m -88.561,237.3147 v 0.031 h 0.1562 z"
         style="fill:#000000;fill-opacity:1;fill-rule:nonzero;stroke:none;stroke-width:3.54330707;stroke-linecap:round;stroke-linejoin:round;stroke-miterlimit:4;stroke-opacity:1" />
      <path
         inkscape:connector-curvature="0"
         sodipodi:nodetypes="cccccccsscccssccccsscccsc"
         inkscape:export-ydpi="150"
         inkscape:export-xdpi="150"
         inkscape:export-filename="/Users/user/vector drawings/Typography/markus.png"
         id="path2480"
         d="m 708.67148,1213.578 c -48.8977,0 -88.5648,17.7163 -88.5938,53.1563 v 17.7187 h 0.0313 v 116.9114 h -0.0313 v 17.7188 c 0.029,35.4399 39.6961,53.1562 88.5938,53.1562 48.8976,0 88.6006,-17.7163 88.5937,-53.1562 -0.002,-9.7796 -7.9392,-17.7188 -17.7187,-17.7188 h -17.7188 -0.0312 c -19.5591,0 -35.4063,15.8785 -35.4063,35.4375 0,9.7796 -7.9392,17.7188 -17.7187,17.7188 -9.7796,0 -17.7188,-7.9392 -17.7188,-17.7188 v -35.4375 -116.9114 -35.4375 c 0,-9.7795 7.9392,-17.7187 17.7188,-17.7187 9.7795,0 17.7187,7.9392 17.7187,17.7187 0,19.5591 15.8472,35.4375 35.4063,35.4375 h 0.0312 17.7188 c 9.7795,0 17.7168,-7.9392 17.7187,-17.7187 0.007,-35.44 -39.6961,-53.1563 -88.5937,-53.1563 z"
         style="fill:#000000;fill-opacity:1;fill-rule:nonzero;stroke:none;stroke-width:3.54330707;stroke-linecap:round;stroke-linejoin:round;stroke-miterlimit:4;stroke-opacity:1" />
      <path
         inkscape:connector-curvature="0"
         inkscape:export-ydpi="150"
         inkscape:export-xdpi="150"
         inkscape:export-filename="/Users/user/vector drawings/Typography/markus.png"
         sodipodi:nodetypes="ccsscccssccsccsscccccccscccc"
         id="path2492"
         d="m 1027.5622,1376.5854 v 35.4375 c 0.029,35.44 39.6961,53.1562 88.5937,53.1563 48.8977,-10e-5 88.6007,-17.7163 88.5938,-53.1563 0,-9.7796 -7.9392,-17.7187 -17.7188,-17.7187 h -17.7187 -0.031 c -19.559,-10e-5 -35.4062,15.8785 -35.4062,35.4375 0,9.7795 -7.9393,17.7187 -17.7188,17.7187 -9.7795,0 -17.7187,-7.9392 -17.7187,-17.7187 v -35.4375 c 0,-9.7778 7.9386,-17.7188 17.7187,-17.7188 48.8977,0 88.6007,-17.7051 88.5938,-53.1562 l -0.035,-56.7262 c 0.01,-35.4009 -39.7047,-53.1174 -88.5625,-53.125 -0.01,0 -0.021,0 -0.031,0 -10.0114,0.011 -20.0344,0.7479 -29.9062,2.4375 -15.5532,2.7987 -31.3263,7.8903 -43.5,18.3438 -9.4815,7.8937 -15.3719,19.9787 -15.1562,32.375 z m 88.5583,-145.3199 c 9.7796,0 17.7188,7.9393 17.7188,17.7188 l 0.035,92.1636 c 0,9.7795 -7.9393,17.7188 -17.7188,17.7188 -9.7795,10e-5 -17.7187,-7.9393 -17.7187,-17.7188 l -0.035,-92.1324 c 0,-9.7795 7.9392,-17.7187 17.7187,-17.7187 z"
         style="fill:#000000;fill-opacity:1;fill-rule:nonzero;stroke:none;stroke-width:3.54330707;stroke-linecap:round;stroke-linejoin:round;stroke-miterlimit:4;stroke-opacity:1" />
      <path
         inkscape:connector-curvature="0"
         inkscape:export-ydpi="150"
         inkscape:export-xdpi="150"
         inkscape:export-filename="/Users/user/vector drawings/Typography/markus.png"
         id="path2510"
         d="m 478.36518,1870.9049 h 0.0312 v -106.3125 h -0.0312 z"
         style="fill:#ff0000;fill-opacity:1;fill-rule:nonzero;stroke:none;stroke-width:3.54330707;stroke-linecap:round;stroke-linejoin:round;stroke-miterlimit:4;stroke-opacity:1" />
      <path
         inkscape:connector-curvature="0"
         inkscape:export-ydpi="150"
         inkscape:export-xdpi="150"
         inkscape:export-filename="/Users/user/vector drawings/Typography/markus.png"
         id="path2515"
         d="m 1346.4288,1075.389 c -48.8977,1e-4 -88.5647,17.7163 -88.5938,53.1563 v 17.7187 53.75 c -0.3159,9.5037 -8.11,17.125 -17.6875,17.125 h -17.7187 v 17.7188 h 17.7187 c 9.5799,0 17.3715,7.6238 17.6875,17.125 v 177.75 c 0,9.7672 -7.9218,17.7017 -17.6875,17.7187 v 17.7188 h 17.6875 70.875 17.7188 v -17.7188 c -9.7777,1e-4 -17.7188,-7.9386 -17.7188,-17.7187 v -177.1563 c 0,-9.7776 7.9386,-17.7187 17.7188,-17.7187 h 53.1562 v -17.7188 h -53.1562 c -9.7777,1e-4 -17.7188,-7.9386 -17.7188,-17.7187 v -53.1563 -35.4375 c 0,-9.7795 7.9392,-17.7187 17.7188,-17.7187 9.7795,0 17.7187,7.9392 17.7187,17.7187 0,19.5591 15.8472,35.4375 35.4063,35.4375 h 0.031 17.7188 c 9.7795,1e-4 17.7168,-7.9392 17.7187,-17.7187 0.01,-35.44 -39.6961,-53.1563 -88.5937,-53.1563 z"
         style="fill:#000000;fill-opacity:1;fill-rule:nonzero;stroke:none;stroke-width:3.54330707;stroke-linecap:round;stroke-linejoin:round;stroke-miterlimit:4;stroke-opacity:1" />
      <path
         inkscape:connector-curvature="0"
         sodipodi:nodetypes="csssssssssssssccccccccccccccccscccccccscccc"
         inkscape:export-ydpi="150"
         inkscape:export-xdpi="150"
         inkscape:export-filename="/Users/user/vector drawings/Typography/markus.png"
         id="path2569"
         d="m 727.03318,1780.5318 c 5.6497,0.036 11.1856,0.299 16.5313,0.8125 5.7643,0.5536 11.3272,1.3926 16.625,2.5 2.6488,0.5536 5.24,1.1516 7.75,1.8437 2.5099,0.6921 4.9563,1.4507 7.3125,2.2813 2.3561,0.8305 4.6249,1.7498 6.8125,2.7187 2.1875,0.969 4.2771,2.0176 6.2812,3.125 2.0041,1.1074 3.913,2.2542 5.7188,3.5 1.8057,1.2458 3.5011,2.5845 5.0937,3.9688 1.5926,1.3842 3.1042,2.821 4.4688,4.3437 1.3645,1.5227 2.597,3.1201 3.7187,4.7813 1.1217,1.6611 2.1047,3.3878 2.9688,5.1875 0.864,1.7996 1.596,3.6869 2.1875,5.625 0.5914,1.938 1.0709,3.9234 1.375,6 0.304,2.0765 1.0919,4.2225 1.0937,6.4375 h 0.6563 l -0.625,108.7441 0.0312,124 v 0.031 h -0.0625 v 70.8125 c 0,9.7777 7.9386,17.7187 17.7188,17.7187 v 17.7188 h -17.7188 -53.1562 c -9.7672,0 -17.7018,-7.9218 -17.7188,-17.6875 v -88.5625 h 0.0625 v -0.031 -17.7187 c 0,-9.7777 -7.9386,-17.7188 -17.7187,-17.7188 -48.8977,0 -88.6007,-17.7052 -88.5938,-53.1562 l 0.5938,-144.1504 c -0.007,-35.2483 39.3695,-52.9654 87.9375,-53.125 z m 0,17.6875 c -9.7795,0 -17.7187,7.9392 -17.7187,17.7187 l -0.5938,179.5879 c 0,9.7795 7.9392,17.7188 17.7188,17.7188 9.7795,0 17.7187,-7.9393 17.7187,-17.7188 l 0.5938,-179.5566 c 0,-9.7796 -7.9392,-17.7188 -17.7188,-17.7188 z"
         style="fill:#000000;fill-opacity:1;fill-rule:nonzero;stroke:none;stroke-width:3.54330707;stroke-linecap:round;stroke-linejoin:round;stroke-miterlimit:4;stroke-opacity:1" />
      <path
         inkscape:connector-curvature="0"
         inkscape:export-ydpi="150"
         inkscape:export-xdpi="150"
         inkscape:export-filename="/Users/user/vector drawings/Typography/markus.png"
         style="fill:#000000;fill-opacity:1;fill-rule:nonzero;stroke:none;stroke-width:3.54330707;stroke-linecap:round;stroke-linejoin:round;stroke-miterlimit:4;stroke-opacity:1"
         d="m 407.49038,2172.6778 v -17.7188 c 9.7801,0 17.7187,-7.941 17.7187,-17.7187 v -70.8125 h -0.0625 l 0.0313,-124.0313 v -124 c 0,-9.7802 -7.9098,-17.75 -17.6875,-17.75 v -17.6875 h 17.6875 88.5937 c 48.8722,0 88.6007,17.7165 88.5938,53.125 l -0.0313,141.7187 c 0.007,35.4511 -39.6961,53.1563 -88.5937,53.1563 -9.7802,0 -17.7188,7.941 -17.7188,17.7188 v 17.75 h 0.0625 v 88.5625 c -0.017,9.7656 -7.9515,17.6875 -17.7187,17.6875 h -53.1563 z m 106.25,-159.4376 c 9.7795,0 17.7187,-7.9392 17.7187,-17.7187 l 0.0313,-177.1563 c 0,-9.7795 -7.9393,-17.7187 -17.7188,-17.7187 v 0.031 c -9.7795,0 -17.7187,7.9392 -17.7187,17.7188 l -0.0313,177.125 c 0,9.7795 7.9392,17.7187 17.7188,17.7187 z"
         id="path2581" />
      <path
         inkscape:connector-curvature="0"
         sodipodi:nodetypes="cccccccccccccsscccssccccccccccccccccc"
         inkscape:export-ydpi="150"
         inkscape:export-xdpi="150"
         inkscape:export-filename="/Users/user/vector drawings/Typography/markus.png"
         id="path2605"
         d="m 1311.0226,1642.3182 v 17.7188 c 9.7777,0 17.7188,7.9386 17.7188,17.7187 v 52.8749 h 0.031 v 36.3125 c -0.316,9.5012 -8.1076,17.125 -17.6875,17.125 h -17.7187 v 17.7188 h 17.7187 c 9.5775,0 17.3716,7.6214 17.6875,17.125 l -0.01,145.8472 v 17.7187 c 0.029,35.44 39.6961,53.1563 88.5938,53.1563 48.8976,0 88.6006,-17.7163 88.5937,-53.1563 0,-9.7795 -7.9392,-17.7187 -17.7187,-17.7187 h -17.7188 -0.031 c -19.5591,0 -35.4063,15.8784 -35.4063,35.4375 0,9.7796 -7.9392,17.7187 -17.7187,17.7187 -9.7796,1e-4 -17.7188,-7.9392 -17.7188,-17.7187 v -35.4375 l 0.01,-145.2535 c 0,-9.78 7.9411,-17.7187 17.7188,-17.7187 h 53.1562 v -17.7188 h -53.1562 c -9.7802,0 -17.7188,-7.941 -17.7188,-17.7187 v -35.7188 h -0.031 v -35.7499 -17.125 c 0,-0.096 0,-0.1855 0,-0.2812 l 0.031,-18 c 10e-5,-8.25 -5.6716,-15.1882 -13.3125,-17.1563 h -57.5937 z"
         style="fill:#000000;fill-opacity:1;fill-rule:nonzero;stroke:none;stroke-width:3.54330707;stroke-linecap:round;stroke-linejoin:round;stroke-miterlimit:4;stroke-opacity:1" />
      <path
         inkscape:connector-curvature="0"
         sodipodi:nodetypes="cssssssssssssssssssssssssssssssssssssssssssssssssssccccccssssssssssssssssssssssssssssssssssssssssssssssssssssssssssssssssssssssscccccccssssssssssssssssssssssssssssssssccsccccssssssssssssssssssccccssssssssssssssssc"
         inkscape:export-ydpi="150"
         inkscape:export-xdpi="150"
         inkscape:export-filename="/Users/user/vector drawings/Typography/markus.png"
         id="path2608"
         d="m 283.46358,1780.4671 c -24.4489,0 -46.5924,4.4222 -62.625,13.2812 -0.0122,0.01 -0.0192,0.025 -0.0313,0.031 -0.9889,0.5471 -1.9648,1.1066 -2.9062,1.6875 -0.012,0.01 -0.0193,0.024 -0.0313,0.031 -0.9403,0.5811 -1.8589,1.1665 -2.75,1.7813 -0.0118,0.01 -0.0195,0.023 -0.0312,0.031 -2.6947,1.8619 -5.1642,3.8607 -7.375,6.0313 -0.0105,0.01 -0.0208,0.021 -0.0313,0.031 -0.0317,0.031 -0.0622,0.063 -0.0937,0.094 -0.6952,0.6874 -1.3877,1.4068 -2.0313,2.125 -0.005,0.01 0.005,0.026 0,0.031 -0.3356,0.3749 -0.6787,0.7417 -1,1.125 -0.005,0.01 0.005,0.025 0,0.031 -0.3208,0.3831 -0.6313,0.7647 -0.9375,1.1562 -0.009,0.011 -0.0223,0.02 -0.0312,0.031 -0.3017,0.3865 -0.5878,0.7615 -0.875,1.1562 -0.009,0.012 -0.0226,0.019 -0.0313,0.031 -0.2871,0.3953 -0.5713,0.8153 -0.8437,1.2187 -0.008,0.012 -0.0233,0.019 -0.0313,0.031 -0.2719,0.4035 -0.5242,0.8071 -0.7812,1.2187 -0.1101,0.176 -0.2052,0.3538 -0.3125,0.5313 -0.1522,0.2519 -0.3222,0.495 -0.4688,0.75 -0.004,0.01 0.005,0.023 0,0.031 -0.2438,0.4249 -0.4905,0.8481 -0.7187,1.2813 -0.004,0.01 0.004,0.023 0,0.031 -0.2279,0.4333 -0.4755,0.8709 -0.6875,1.3125 -0.004,0.01 0.004,0.023 0,0.031 -0.2115,0.4413 -0.3984,0.8628 -0.5938,1.3125 -0.1203,0.2762 -0.2296,0.5643 -0.3437,0.8437 -0.0763,0.187 -0.1765,0.3742 -0.25,0.5625 -0.004,0.01 0.003,0.022 0,0.031 -0.1785,0.4581 -0.3381,0.9085 -0.5,1.375 -0.1126,0.3236 -0.2393,0.6411 -0.3438,0.9687 -0.0498,0.1564 -0.1082,0.3115 -0.1562,0.4688 -0.003,0.01 0.003,0.022 0,0.031 -0.1446,0.4751 -0.2786,0.9541 -0.4063,1.4375 -0.003,0.01 0.003,0.022 0,0.031 -0.1274,0.4836 -0.2648,0.9767 -0.375,1.4687 -0.002,0.01 0.002,0.021 0,0.031 -0.0207,0.093 -0.0424,0.1881 -0.0625,0.2812 -0.1776,0.8224 -0.3398,1.6546 -0.4687,2.5 -0.0128,0.084 -0.019,0.1662 -0.0313,0.25 -0.001,0.01 0.002,0.021 0,0.031 -0.0742,0.509 -0.1312,1.0138 -0.1875,1.5312 -0.001,0.01 0.001,0.021 0,0.031 -0.056,0.5177 -0.1183,1.0365 -0.1562,1.5625 -8e-4,0.01 7e-4,0.021 0,0.031 -0.0376,0.5263 -0.0432,1.0591 -0.0625,1.5938 -4e-4,0.01 3e-4,0.021 0,0.031 -0.019,0.535 -0.0309,1.0817 -0.0313,1.625 0,0.011 0,0.021 0,0.031 v 17.6875 h 0.0313 l 0.125,113.6457 h -0.0313 v 17.7187 c 5e-4,0.5538 0.0116,1.1112 0.0313,1.6563 3e-4,0.01 -4e-4,0.021 0,0.031 0.0196,0.5345 0.0245,1.0676 0.0625,1.5938 7e-4,0.01 -8e-4,0.021 0,0.031 0.0383,0.5259 0.0998,1.045 0.1562,1.5625 0.001,0.01 -0.001,0.021 0,0.031 0.0567,0.5172 0.113,1.0223 0.1875,1.5312 0.002,0.01 -0.001,0.021 0,0.031 0.1497,1.0281 0.3413,2.0371 0.5625,3.0312 0.002,0.01 -0.002,0.021 0,0.031 0.1106,0.4918 0.2473,0.9852 0.375,1.4687 0.002,0.01 -0.002,0.022 0,0.031 0.128,0.4832 0.2613,0.9625 0.4063,1.4375 0.003,0.01 -0.003,0.022 0,0.031 0.2922,0.9596 0.6399,1.8868 1,2.8125 0.004,0.01 -0.004,0.022 0,0.031 0.3608,0.9256 0.7605,1.827 1.1875,2.7187 0.004,0.01 -0.004,0.023 0,0.031 0.2123,0.4414 0.4593,0.8793 0.6875,1.3125 0.004,0.01 -0.004,0.023 0,0.031 0.2285,0.433 0.4746,0.8566 0.7187,1.2813 0.005,0.01 -0.004,0.023 0,0.031 1.2387,2.1562 2.6875,4.1838 4.3125,6.125 0.005,0.01 -0.005,0.025 0,0.031 0.3215,0.3832 0.6641,0.7502 1,1.125 0.005,0.01 -0.005,0.025 0,0.031 15.0094,16.7499 44.2891,25.125 77.9063,25.125 21.3927,0 40.9996,-3.4048 56.3125,-10.1875 0.0127,-0.01 0.0184,-0.025 0.0312,-0.031 3.267,-1.449 6.3385,-3.0232 9.1875,-4.7813 0.0123,-0.01 0.019,-0.024 0.0313,-0.031 3.8056,-2.3517 7.2324,-5.0023 10.1875,-7.9063 0.74,-0.7272 1.4429,-1.4568 2.125,-2.2187 0.3358,-0.3748 0.6785,-0.7418 1,-1.125 0.005,-0.01 -0.005,-0.025 0,-0.031 0.2555,-0.3049 0.5036,-0.6272 0.75,-0.9375 0.0688,-0.087 0.1505,-0.1626 0.2187,-0.25 0.306,-0.3914 0.615,-0.7565 0.9063,-1.1562 0.005,-0.01 -0.005,-0.024 0,-0.031 0.2,-0.275 0.4007,-0.5648 0.5937,-0.8437 0.0935,-0.1353 0.1895,-0.2701 0.2813,-0.4063 0.2722,-0.4032 0.5239,-0.8073 0.7812,-1.2187 0.008,-0.012 0.0237,-0.019 0.0313,-0.031 0.2569,-0.4118 0.5081,-0.83 0.75,-1.25 0.007,-0.012 0.0242,-0.019 0.0312,-0.031 0.2415,-0.4204 0.4614,-0.8528 0.6875,-1.2813 0.007,-0.012 0.0248,-0.019 0.0313,-0.031 0.2279,-0.433 0.4441,-0.8712 0.6562,-1.3125 0.004,-0.01 -0.004,-0.023 0,-0.031 0.2117,-0.4414 0.4294,-0.894 0.625,-1.3437 0.004,-0.01 -0.004,-0.022 0,-0.031 0.1952,-0.4496 0.3836,-0.8858 0.5625,-1.3437 0.004,-0.01 -0.003,-0.022 0,-0.031 0.1786,-0.4581 0.3692,-0.9085 0.5313,-1.375 0.003,-0.01 -0.003,-0.022 0,-0.031 0.1617,-0.4666 0.3237,-0.9315 0.4687,-1.4063 0.003,-0.01 -0.003,-0.022 0,-0.031 0.1446,-0.475 0.2786,-0.9543 0.4063,-1.4375 0.002,-0.01 -0.003,-0.022 0,-0.031 0.1273,-0.4835 0.2648,-0.9769 0.375,-1.4687 0.002,-0.01 -0.002,-0.022 0,-0.031 0.1098,-0.492 0.22,-0.9997 0.3125,-1.5 0.002,-0.01 -0.002,-0.021 0,-0.031 0.092,-0.5004 0.1755,-0.9914 0.25,-1.5 0.002,-0.01 -10e-4,-0.021 0,-0.031 0.0741,-0.5089 0.1312,-1.014 0.1875,-1.5312 0.001,-0.01 -10e-4,-0.021 0,-0.031 0.0559,-0.5175 0.1184,-1.0366 0.1562,-1.5625 7e-4,-0.01 -7e-4,-0.021 0,-0.031 0.0375,-0.5262 0.0746,-1.0593 0.0938,-1.5938 3e-4,-0.01 -4e-4,-0.021 0,-0.031 0.0188,-0.5349 0.031,-1.0819 0.0312,-1.625 v -0.031 -17.6875 h -0.0312 l -0.125,-113.6457 h 0.0312 v -17.7187 c 0,-0.011 0,-0.021 0,-0.031 1e-4,-0.5433 -0.0128,-1.09 -0.0312,-1.625 -4e-4,-0.01 3e-4,-0.021 0,-0.031 -0.0188,-0.5347 -0.0567,-1.0675 -0.0938,-1.5938 -7e-4,-0.01 8e-4,-0.021 0,-0.031 -0.0375,-0.526 -0.1007,-1.0448 -0.1562,-1.5625 -10e-4,-0.01 0.001,-0.021 0,-0.031 -0.0559,-0.5174 -0.1138,-1.0222 -0.1875,-1.5312 -0.002,-0.01 0.002,-0.021 0,-0.031 -0.0741,-0.5088 -0.1583,-0.9995 -0.25,-1.5 -0.002,-0.01 0.002,-0.021 0,-0.031 -0.0921,-0.5005 -0.203,-1.0079 -0.3125,-1.5 -0.002,-0.01 0.002,-0.021 0,-0.031 -0.1099,-0.492 -0.248,-0.9851 -0.375,-1.4687 -0.003,-0.01 0.002,-0.022 0,-0.031 -0.1274,-0.4834 -0.262,-0.9624 -0.4063,-1.4375 -0.003,-0.01 0.003,-0.022 0,-0.031 -0.1447,-0.475 -0.3074,-0.9396 -0.4687,-1.4063 -0.003,-0.01 0.003,-0.022 0,-0.031 -0.1618,-0.4666 -0.353,-0.9167 -0.5313,-1.375 -0.003,-0.01 0.004,-0.022 0,-0.031 -0.1787,-0.4582 -0.3675,-0.925 -0.5625,-1.375 -0.004,-0.01 0.004,-0.023 0,-0.031 -0.1953,-0.4498 -0.4136,-0.8711 -0.625,-1.3125 -0.004,-0.01 0.004,-0.023 0,-0.031 -1.0754,-2.2419 -2.3706,-4.3791 -3.8437,-6.4062 -0.005,-0.01 0.005,-0.025 0,-0.031 -0.5871,-0.8068 -1.2281,-1.5709 -1.875,-2.3437 -0.005,-0.01 0.005,-0.025 0,-0.031 -0.3213,-0.3833 -0.6644,-0.7501 -1,-1.125 -0.005,-0.01 0.005,-0.026 0,-0.031 -0.6773,-0.7558 -1.3906,-1.4971 -2.125,-2.2188 -15.5418,-15.2723 -43.6498,-22.9062 -75.75,-22.9062 z m 0,17.75 c 4.8897,0 9.2927,1.9802 12.5,5.1875 3.2072,3.2072 5.2187,7.6414 5.2187,12.5312 v 35.4375 l 0.125,113.6457 v 35.4063 c 0,4.2867 -1.5252,8.2466 -4.0625,11.3125 -0.3563,0.4317 -0.7612,0.8227 -1.1562,1.2187 -3.2073,3.2073 -7.6103,5.1875 -12.5,5.1875 -4.8898,0 -9.324,-1.9802 -12.5313,-5.1875 -0.4008,-0.4018 -0.7952,-0.8114 -1.1562,-1.25 -0.356,-0.4312 -0.7167,-0.8797 -1.0313,-1.3437 -0.005,-0.01 0.005,-0.024 0,-0.031 -0.3135,-0.4639 -0.6057,-0.9437 -0.875,-1.4375 -0.005,-0.01 0.005,-0.023 0,-0.031 -0.2684,-0.4938 -0.5286,-0.9793 -0.75,-1.5 -0.004,-0.01 0.004,-0.022 0,-0.031 -0.2205,-0.521 -0.4231,-1.08 -0.5937,-1.625 -0.003,-0.01 0.003,-0.022 0,-0.031 -0.1697,-0.5451 -0.3205,-1.0901 -0.4375,-1.6563 -0.002,-0.01 0.002,-0.021 0,-0.031 -0.1161,-0.5665 -0.1896,-1.1342 -0.25,-1.7188 -10e-4,-0.01 0.001,-0.021 0,-0.031 -0.0595,-0.5852 -0.0927,-1.1808 -0.0938,-1.7813 0,-0.011 0,-0.021 0,-0.031 v -35.4375 l -0.125,-113.6457 v -35.4063 c 0,-0.01 0,-0.021 0,-0.031 0,-0.6007 0.0353,-1.1959 0.0938,-1.7813 0.001,-0.01 -10e-4,-0.021 0,-0.031 0.0594,-0.585 0.1349,-1.152 0.25,-1.7188 0.002,-0.01 -0.002,-0.021 0,-0.031 0.116,-0.5667 0.2686,-1.1419 0.4375,-1.6875 0.003,-0.01 -0.003,-0.022 0,-0.031 0.1697,-0.5453 0.3741,-1.0724 0.5937,-1.5937 0.004,-0.01 -0.004,-0.023 0,-0.031 0.2206,-0.5211 0.4824,-1.0057 0.75,-1.5 0.004,-0.01 -0.004,-0.023 0,-0.031 0.2686,-0.4942 0.5621,-0.9731 0.875,-1.4375 0.005,-0.01 -0.005,-0.024 0,-0.031 0.3139,-0.4645 0.6759,-0.912 1.0313,-1.3437 0.005,-0.01 -0.005,-0.025 0,-0.031 0.3563,-0.4317 0.7612,-0.8227 1.1562,-1.2187 3.2073,-3.2073 7.6415,-5.1875 12.5313,-5.1875 z"
         style="fill:#000000;fill-opacity:1;fill-rule:nonzero;stroke:none;stroke-width:3.54330707;stroke-linecap:round;stroke-linejoin:round;stroke-miterlimit:4;stroke-opacity:1" />
      <path
         inkscape:connector-curvature="0"
         inkscape:export-ydpi="150"
         inkscape:export-xdpi="150"
         inkscape:export-filename="/Users/user/vector drawings/Typography/markus.png"
         id="path2644"
         d="m 1523.5969,1784.0819 v 17.7187 c 9.7801,10e-5 17.7188,7.9411 17.7188,17.7188 v 123.9687 h 70.8437 l 0.031,-141.7187 c -0.017,-9.7657 -7.9517,-17.6875 -17.7188,-17.6875 h -53.1562 z m 141.75,0 c -9.7671,0 -17.7017,7.9218 -17.7187,17.6875 v 141.7187 h 70.8437 l 0.031,-123.9687 c 0,-9.7777 7.9386,-17.7187 17.7187,-17.7188 v -17.7187 h -17.7187 z m -124.0625,159.4375 v 35.4375 c -0.01,35.4085 39.7216,53.125 88.5938,53.125 h 88.5937 17.6875 v -17.6875 c -9.7777,0 -17.6875,-7.9698 -17.6875,-17.75 v -53.125 h -70.875 v 53.125 c 0,9.7796 -7.9392,17.7187 -17.7187,17.7187 v 0.031 c -9.7796,-10e-5 -17.7188,-7.9393 -17.7188,-17.7188 v -53.1562 z"
         style="fill:#000000;fill-opacity:1;fill-rule:nonzero;stroke:none;stroke-width:3.54330707;stroke-linecap:round;stroke-linejoin:round;stroke-miterlimit:4;stroke-opacity:1" />
      <path
         inkscape:connector-curvature="0"
         inkscape:export-ydpi="150"
         inkscape:export-xdpi="150"
         inkscape:export-filename="/Users/user/vector drawings/Typography/markus.png"
         id="path2654"
         d="m 1629.8843,1075.434 v 17.7188 c 9.7777,0 17.7187,7.9385 17.7187,17.7187 l -0.031,88.5937 h 0.031 v 18 h 0.031 v 35.1251 53.125 h 70.875 v -53.125 c 0,-9.7795 7.9391,-17.7187 17.7187,-17.7187 v -0.031 c 9.7795,2e-4 17.7188,7.9393 17.7188,17.7188 v 53.1562 h 70.875 v -35.4374 c 0.01,-35.4085 -39.7216,-53.1252 -88.5938,-53.1251 h -0.6562 c -9.3027,-0.3094 -16.7845,-7.7889 -17.0938,-17.0938 v -0.5938 h -0.031 l 0.031,-71.4687 v -17.125 c 0,-0.096 0,-0.1854 0,-0.2812 l 0.031,-18 c 0,-8.2499 -5.6717,-15.1882 -13.3125,-17.1563 h -57.5938 z m 17.75,230.3126 -0.031,123.9686 c 0,9.7778 -7.9385,17.7188 -17.7187,17.7188 v 17.7188 h 17.7187 53.1563 c 9.7672,0 17.7017,-7.9218 17.7187,-17.6876 v -141.7186 z m 106.3125,0 -0.031,141.7186 c 0.017,9.7658 7.9517,17.6875 17.7188,17.6876 h 53.1562 17.7188 v -17.7188 c -9.7801,0 -17.7188,-7.941 -17.7188,-17.7188 v -123.9686 z"
         style="fill:#000000;fill-opacity:1;fill-rule:nonzero;stroke:none;stroke-width:3.54330707;stroke-linecap:round;stroke-linejoin:round;stroke-miterlimit:4;stroke-opacity:1" />
      <path
         inkscape:connector-curvature="0"
         inkscape:export-ydpi="150"
         inkscape:export-xdpi="150"
         inkscape:export-filename="/Users/user/vector drawings/Typography/markus.png"
         id="path2661"
         d="m 2019.6742,1784.0497 v 17.7188 c 9.78,-10e-5 17.7187,7.941 17.7187,17.7187 v 127.5625 h -0.031 v 37.1875 c -0.01,35.3933 39.688,53.1095 88.5312,53.125 h 0.062 0.062 c 19.9132,-0.01 38.3236,-2.9548 53.125,-8.8437 v 0.062 c 14.8014,5.8889 33.2118,8.8376 53.125,8.8437 h 0.062 0.062 c 48.8432,-0.015 88.5382,-17.7316 88.5312,-53.125 l -0.031,-37.1875 h -0.031 l 0.031,-127.5625 c 0,-9.7777 7.9387,-17.7188 17.7188,-17.7187 v -17.7188 h -17.7188 -53.1562 c -9.7671,0 -17.7018,7.9219 -17.7188,17.6875 v 145.3125 l 0.031,54.9063 c 0,9.7585 -7.9057,17.6847 -17.6562,17.7187 v -0.031 c -0.021,0 -0.041,0 -0.062,0 -0.021,0 -0.041,0 -0.062,0 v 0.031 c -9.7506,-0.034 -17.6562,-7.9602 -17.6562,-17.7187 v -16.0938 c 0.019,-0.5448 0.031,-1.1029 0.031,-1.6562 l -0.031,-129.375 c 0,-9.5775 -7.6216,-17.3715 -17.125,-17.6875 h -4.1563 l -14.1875,-0.062 h -18.3437 c -9.5036,0.316 -17.1251,8.11 -17.125,17.6875 l -0.031,129.375 c -1e-4,0.5533 0.012,1.1114 0.031,1.6562 v 16.0938 c -1e-4,9.7585 -7.9057,17.6847 -17.6563,17.7187 v -0.031 c -0.021,0 -0.041,0 -0.062,0 -0.021,0 -0.041,0 -0.062,0 v 0.031 c -9.7505,-0.034 -17.6562,-7.9602 -17.6562,-17.7187 v -54.9063 l 0.031,-145.3125 c -0.017,-9.7657 -7.9516,-17.6875 -17.7187,-17.6875 h -53.1563 z"
         style="fill:#000000;fill-opacity:1;fill-rule:nonzero;stroke:none;stroke-width:3.54330707;stroke-linecap:round;stroke-linejoin:round;stroke-miterlimit:4;stroke-opacity:1" />
      <path
         inkscape:connector-curvature="0"
         inkscape:export-ydpi="150"
         inkscape:export-xdpi="150"
         inkscape:export-filename="/Users/user/vector drawings/Typography/markus.png"
         style="fill:#000000;fill-opacity:1;fill-rule:nonzero;stroke:none;stroke-width:3.54330707;stroke-linecap:round;stroke-linejoin:round;stroke-miterlimit:4;stroke-opacity:1"
         d="m 2763.7536,1216.53 c -19.9132,0.01 -38.3236,2.9549 -53.125,8.8438 -14.8011,-5.8707 -33.1978,-8.8125 -53.0937,-8.8125 h -88.5938 -17.6875 v 17.6875 c 9.7777,0 17.6875,7.9698 17.6875,17.75 v 53.125 h 70.875 v -53.125 c 0,-9.7796 7.9392,-17.7185 17.7188,-17.7188 v -0.031 c 9.7795,10e-5 17.7187,7.9392 17.7187,17.7188 v 16.0312 c -0.019,0.5446 -0.031,1.1031 -0.031,1.6562 l -0.031,124.0313 h 0.031 c -1e-4,9.7777 7.9386,17.7187 17.7187,17.7187 h 36.0313 c 9.5035,-0.316 17.1251,-8.1099 17.125,-17.6874 l 0.031,-124.0313 c 1e-4,-0.5533 -0.012,-1.1116 -0.031,-1.6563 v -16.0937 c 0,-9.7585 7.9057,-17.6847 17.6562,-17.7187 v 0.031 c 0.021,0 0.041,0 0.062,0 0.021,0 0.041,0 0.062,0 v -0.031 c 9.7506,0.034 17.6563,7.9602 17.6563,17.7187 v 53.1563 l -0.031,141.7187 c 0.017,9.7657 7.9516,17.6875 17.7188,17.6875 h 53.1562 17.7188 v -17.719 c -9.7802,10e-5 -17.7188,-7.941 -17.7188,-17.7187 v -123.9687 h 0.031 v -35.4376 c 0.01,-35.3933 -39.688,-53.1096 -88.5313,-53.125 h -0.062 z m -194.8125,88.625 -0.031,123.9688 c 0,9.7777 -7.9386,17.7187 -17.7188,17.7188 v 17.7187 h 17.7188 53.1562 c 9.7672,0 17.7018,-7.9218 17.7188,-17.6875 V 1305.155 Z"
         id="path2692" />
      <path
         inkscape:connector-curvature="0"
         sodipodi:nodetypes="ccccscccccccccccsccccccccccccccsccccccccccsccccccccccccc"
         inkscape:export-ydpi="150"
         inkscape:export-xdpi="150"
         inkscape:export-filename="/Users/user/vector drawings/Typography/markus.png"
         id="path2787"
         d="m 1505.8844,1213.578 c -48.8833,0.01 -88.5625,17.7232 -88.5625,53.1563 l -0.016,74.4183 c 0,16.4325 8.5594,29.0155 22.5937,37.8125 -13.2087,5.1483 -22.5625,18.0014 -22.5625,33.0312 10e-5,15.0298 9.3538,27.8829 22.5625,33.0313 -14.0466,8.8132 -22.5937,21.3992 -22.5937,37.8437 v 53.1563 17.7187 c 0,35.4331 39.6792,53.1495 88.5625,53.1563 v -17.7188 c -9.7795,0 -17.7187,-7.9392 -17.7188,-17.7187 v -17.7188 -17.7187 -53.1563 -17.7187 c 0,-9.7796 7.9393,-17.7188 17.7188,-17.7188 9.7795,0 17.7187,7.9393 17.7187,17.7188 v 17.7187 70.875 h 0.031 v 17.7188 c 0,9.7795 -7.9392,17.7187 -17.7188,17.7187 v 17.7188 c 48.8833,-0.01 88.5625,-17.7232 88.5625,-53.1563 v -70.875 h -0.031 c 0,-35.4255 -39.6624,-53.1419 -88.5313,-53.1562 h -0.031 -17.7188 -17.6875 c -9.7795,-10e-5 -17.7187,-7.9393 -17.7187,-17.7188 0,-9.7795 7.9392,-17.7188 17.7187,-17.7187 h 35.4063 0.031 c 48.8833,-0.01 88.5625,-17.692 88.5625,-53.125 l 0.016,-74.4183 c 0,-0.5537 -0.012,-1.1113 -0.031,-1.6563 v -16.0625 c 0,-9.7795 7.9392,-17.7187 17.7187,-17.7187 v -17.7188 c -19.9296,0 -38.3203,2.9532 -53.125,8.8438 -14.8046,-5.8906 -33.1953,-8.841 -53.125,-8.8438 -0.01,0 -0.021,0 -0.031,0 z m 0,17.7188 c 9.7795,0 17.7188,7.9392 17.7187,17.7187 v 17.7188 17.7187 l -0.016,74.4183 c 0,9.7796 -7.9392,17.7188 -17.7187,17.7188 v -0.031 c -0.1569,0 -0.312,-4e-4 -0.4688,0 -9.5611,-0.251 -17.2499,-8.0661 -17.25,-17.6875 l 0.016,-74.4183 v -35.4375 c 10e-5,-9.7795 7.9393,-17.7187 17.7188,-17.7187 z"
         style="fill:#000000;fill-opacity:1;fill-rule:nonzero;stroke:none;stroke-width:3.54330707;stroke-linecap:round;stroke-linejoin:round;stroke-miterlimit:4;stroke-opacity:1" />
      <path
         inkscape:connector-curvature="0"
         inkscape:export-ydpi="150"
         inkscape:export-xdpi="150"
         inkscape:export-filename="/Users/user/vector drawings/Typography/markus.png"
         id="path2795"
         d="m 3118.1555,1464.5613 v -17.7187 c -9.7801,0 -17.7187,-7.9411 -17.7187,-17.7188 v -123.9687 h -70.8438 l -0.031,141.7187 c 0.017,9.7657 7.9516,17.6875 17.7187,17.6875 h 53.1563 z m -141.75,0 c 9.7672,0 17.7018,-7.9218 17.7188,-17.6875 v -141.7187 h -70.8439 l -0.031,123.9687 c 0,9.7777 -7.9386,17.7188 -17.7188,17.7188 v 17.7187 h 17.7188 z m 124.0625,-159.4375 v -35.4375 c 0.01,-35.4085 -39.7215,-53.125 -88.5937,-53.125 h -88.5939 -17.6875 v 17.6875 c 9.7777,0 17.6875,7.9698 17.6875,17.75 v 53.125 h 70.8751 v -53.125 c 0,-9.7796 7.9392,-17.7187 17.7188,-17.7187 v -0.031 c 9.7795,10e-5 17.7187,7.9393 17.7187,17.7188 v 53.1562 z"
         style="fill:#000000;fill-opacity:1;fill-rule:nonzero;stroke:none;stroke-width:3.54330707;stroke-linecap:round;stroke-linejoin:round;stroke-miterlimit:4;stroke-opacity:1" />
      <path
         inkscape:connector-curvature="0"
         inkscape:export-ydpi="150"
         inkscape:export-xdpi="150"
         inkscape:export-filename="/Users/user/vector drawings/Typography/markus.png"
         id="path2808"
         d="m 1922.2679,1075.3935 c -24.4488,0 -44.3125,19.8324 -44.3125,44.2812 0,24.4488 19.8637,44.3125 44.3125,44.3125 24.4488,0 44.2812,-19.8637 44.2813,-44.3125 0,-24.4488 -19.8325,-44.2812 -44.2813,-44.2812 z m -44.2812,141.75 v 17.7187 c 9.7776,0 17.7187,7.9386 17.7187,17.7188 l -0.031,124 v 53.1562 c 0,9.7672 -7.9218,17.7017 -17.6875,17.7188 v 17.7187 h 17.6875 70.875 17.7187 v -17.7187 c -9.7778,0 -17.7187,-7.9386 -17.7187,-17.7188 v -53.1562 l 0.031,-106.3125 h -0.062 v -35.4063 c -10e-5,-9.7777 -7.9385,-17.7187 -17.7187,-17.7187 h -53.0938 z"
         style="fill:#000000;fill-opacity:1;fill-rule:nonzero;stroke:none;stroke-width:3.54330707;stroke-linecap:round;stroke-linejoin:round;stroke-miterlimit:4;stroke-opacity:1" />
      <path
         inkscape:connector-curvature="0"
         inkscape:export-ydpi="150"
         inkscape:export-xdpi="150"
         inkscape:export-filename="/Users/user/vector drawings/Typography/markus.png"
         id="path2833"
         d="m 2081.7054,1075.3935 c -24.4488,0 -44.2812,19.8324 -44.2812,44.2812 0,24.4488 19.8324,44.3125 44.2812,44.3125 24.4488,0 44.2813,-19.8637 44.2813,-44.3125 0,-24.4488 -19.8325,-44.2812 -44.2813,-44.2812 z m -44.2812,141.75 v 17.7187 c 9.7775,0 17.7187,7.9386 17.7187,17.7188 l -0.031,301.1562 v 17.7188 c -2e-4,9.7795 -7.9393,17.7187 -17.7188,17.7187 v 17.7188 c 48.8831,-0.01 88.5625,-17.7232 88.5625,-53.1563 h 0.031 l 0.031,-283.4687 h -0.062 v -35.4063 c 1e-4,-9.7777 -7.9385,-17.7187 -17.7187,-17.7187 h -53.0938 z m -70.9063,318.875 c -9.7796,0 -17.7186,7.9392 -17.7187,17.7187 -2e-4,35.4331 39.6792,53.1495 88.5625,53.1563 v -17.7188 c -9.7798,0 -17.7188,-7.9392 -17.7188,-17.7187 -10e-5,-19.5591 -15.8471,-35.4375 -35.4062,-35.4375 z"
         style="fill:#000000;fill-opacity:1;fill-rule:nonzero;stroke:none;stroke-width:3.54330707;stroke-linecap:round;stroke-linejoin:round;stroke-miterlimit:4;stroke-opacity:1" />
      <path
         inkscape:connector-curvature="0"
         inkscape:export-ydpi="150"
         inkscape:export-xdpi="150"
         inkscape:export-filename="/Users/user/vector drawings/Typography/markus.png"
         id="path2852"
         d="m 2161.4181,1075.6878 v 17.7187 c 9.7779,0 17.7188,7.9386 17.7188,17.7188 l 0.5625,177.125 h 0.031 v 18 h 0.031 v 35.125 53.125 h 70.875 v -53.125 c 0,-9.7795 7.9392,-17.7188 17.7188,-17.7188 v -0.031 c 9.7794,2e-4 17.7187,7.9392 17.7187,17.7187 v 53.1563 h 70.875 v -35.4375 c 0,-20.9813 -13.9342,-35.7289 -35.4687,-44.2813 21.541,-8.5517 35.4728,-23.3275 35.4687,-44.3125 l -0.625,0.062 h -70.875 l 0.625,17.6563 c 0,9.7795 -7.9393,17.7185 -17.7187,17.7187 v 0.031 h -0.6563 c -9.3027,-0.3094 -16.7845,-7.7889 -17.0937,-17.0938 v -0.5937 h -0.031 l -0.5625,-160 v -17.125 c 1e-4,-0.096 0,-0.1855 0,-0.2813 l 0.031,-18 c 2e-4,-8.2499 -5.6716,-15.1882 -13.3124,-17.1562 h -57.5938 z m 141.7188,141.75 c -9.7671,10e-5 -17.7018,7.9217 -17.7188,17.6875 l 0.031,35.375 h 70.8437 v -17.625 c 10e-5,-9.7778 7.9387,-17.7188 17.7188,-17.7188 v -17.7187 h -17.7188 z m -123.375,177.0937 -0.625,35.4375 c 1e-4,9.7778 -7.9385,17.7188 -17.7188,17.7188 v 17.7187 h 17.7188 53.1562 c 9.7674,0 17.7018,-7.9217 17.7188,-17.6875 l 0.5938,-53.1875 z m 106.3125,0 -0.625,53.1875 c 0.017,9.7658 7.9516,17.6874 17.7187,17.6875 h 53.1563 17.7187 v -17.7187 c -9.7799,0 -17.7187,-7.941 -17.7187,-17.7188 l 0.5937,-35.4375 z"
         style="fill:#000000;fill-opacity:1;fill-rule:nonzero;stroke:none;stroke-width:3.54330707;stroke-linecap:round;stroke-linejoin:round;stroke-miterlimit:4;stroke-opacity:1" />
      <path
         inkscape:connector-curvature="0"
         inkscape:export-ydpi="150"
         inkscape:export-xdpi="150"
         inkscape:export-filename="/Users/user/vector drawings/Typography/markus.png"
         sodipodi:nodetypes="csccscccccccsccccccccccccc"
         id="path2854"
         d="m 2462.5518,2249.9748 c -48.8833,0.01 -88.5626,17.7232 -88.5625,53.1563 10e-5,9.7795 7.9392,17.7188 17.7188,17.7187 h 17.7187 c 19.5591,1e-4 35.4062,-15.8783 35.4063,-35.4374 0,-9.7796 7.939,-17.7188 17.7187,-17.7188 z m 0.031,0 v 17.7188 c 9.7795,0 17.7187,7.9392 17.7187,17.7188 v 17.7187 l 0.014,17.7175 c 0,48.8908 -48.0653,103.5285 -35.4375,88.5938 0.013,-0.016 -35.4375,39.6961 -35.4375,88.5937 v 17.6875 c 0,9.7807 7.9468,17.7188 17.7187,17.7188 h 35.4376 c 9.7719,-10e-5 17.7187,-7.9068 17.7187,-17.6876 h -17.7187 v -0.031 h 17.7187 c 0,-48.1268 35.442,-88.5804 34.5313,-88.5625 0.9107,-0.018 31.9313,-55.0805 36.3437,-88.5937 l -0.014,-35.4363 h -0.031 c 0,-35.433 -39.6792,-53.1494 -88.5624,-53.1563 z"
         style="fill:#000000;fill-opacity:1;fill-rule:nonzero;stroke:none;stroke-width:3.54330707;stroke-linecap:round;stroke-linejoin:round;stroke-miterlimit:4;stroke-opacity:1" />
      <path
         inkscape:connector-curvature="0"
         inkscape:export-ydpi="150"
         inkscape:export-xdpi="150"
         inkscape:export-filename="/Users/user/vector drawings/Typography/markus.png"
         id="path2861"
         d="m 2409.4813,1075.389 v 17.7188 c 9.7777,0 17.7187,7.9386 17.7187,17.7187 l -0.031,265.75 v 53.1563 c 1e-4,9.7672 -7.9218,17.7017 -17.6874,17.7187 v 17.7188 h 17.6874 70.875 17.7188 v -17.7188 c -9.7778,1e-4 -17.7188,-7.9386 -17.7188,-17.7187 v -53.1563 l 0.031,-248.0312 h -0.031 v -35.4375 c 2e-4,-9.7777 -7.9385,-17.7188 -17.7187,-17.7188 H 2427.2 Z"
         style="fill:#000000;fill-opacity:1;fill-rule:nonzero;stroke:none;stroke-width:3.54330707;stroke-linecap:round;stroke-linejoin:round;stroke-miterlimit:4;stroke-opacity:1" />
      <path
         inkscape:connector-curvature="0"
         inkscape:export-ydpi="150"
         inkscape:export-xdpi="150"
         inkscape:export-filename="/Users/user/vector drawings/Typography/markus.png"
         id="path2871"
         d="m 956.72118,1782.3062 v 17.7187 c 9.7799,1e-4 17.7188,7.9393 17.7188,17.7188 10e-5,19.5591 15.8471,35.4376 35.40622,35.4375 h 17.7188 c 9.7796,0 17.7186,-7.9393 17.7188,-17.7188 2e-4,-35.433 -39.6794,-53.1494 -88.56262,-53.1562 z m -106.3124,0.031 v 17.7188 c 9.7776,0 17.7187,7.9386 17.7187,17.7187 l -0.0313,124 v 53.1563 c 10e-5,9.7672 -7.9218,17.7017 -17.6874,17.7187 v 17.7188 h 17.6874 70.875 17.7188 v -17.7188 c -9.7778,10e-5 -17.7188,-7.9386 -17.7188,-17.7187 v -53.1563 l 0.0313,-124 c 0,-9.7671 7.9217,-17.7017 17.6875,-17.7187 v -17.7188 h -17.6875 -70.875 z"
         style="fill:#000000;fill-opacity:1;fill-rule:nonzero;stroke:none;stroke-width:3.54330707;stroke-linecap:round;stroke-linejoin:round;stroke-miterlimit:4;stroke-opacity:1" />
      <path
         inkscape:connector-curvature="0"
         inkscape:export-ydpi="150"
         inkscape:export-xdpi="150"
         inkscape:export-filename="/Users/user/vector drawings/Typography/markus.png"
         sodipodi:nodetypes="ccccccccccccccccccscccccc"
         id="path2885"
         d="m 1771.0697,1784.1418 v 17.6875 0.031 h 0.5938 c 9.5036,0.3161 17.125,8.1101 17.125,17.6875 l 0.5917,141.6679 106.2992,106.2992 70.8661,-70.8662 -0.6009,-177.1009 c 10e-5,-9.5775 7.6215,-17.3714 17.125,-17.6875 h 0.5938 v -0.031 -17.6875 h -17.7188 -17.7187 -35.9999 c -9.5036,0.316 -17.125,8.11 -17.125,17.6875 l 0.5917,194.8233 c -10e-5,9.7796 -7.9392,17.7188 -17.7187,17.7188 -9.7797,0 -17.7188,-7.9392 -17.7188,-17.7188 l -0.5917,-194.8233 c 0,-9.5775 -7.6215,-17.3715 -17.125,-17.6875 h -36.0312 -17.7188 z"
         style="display:inline;overflow:visible;visibility:visible;opacity:1;fill:#000000;fill-opacity:1;fill-rule:nonzero;stroke:none;stroke-width:3.54330707;stroke-linecap:round;stroke-linejoin:round;stroke-miterlimit:4;stroke-dasharray:none;stroke-dashoffset:0;stroke-opacity:1;marker:none;marker-start:none;marker-mid:none;marker-end:none;enable-background:accumulate" />
      <path
         inkscape:connector-curvature="0"
         inkscape:export-ydpi="150"
         inkscape:export-xdpi="150"
         inkscape:export-filename="/Users/user/vector drawings/Typography/markus.png"
         id="path2913"
         d="m 2374.0304,1784.0504 v 17.7187 c 9.7801,0 17.7187,8.0347 17.7187,17.8125 v 17.625 c 0.01,20.9684 13.9384,35.7338 35.4687,44.2813 -21.5345,8.5523 -35.4727,23.3 -35.4687,44.2812 v 35.4375 h 70.875 v -53.1562 c 0,-9.769 7.9225,-17.7015 17.6875,-17.7188 v -17.7187 c -9.765,-0.017 -17.6874,-7.9498 -17.6875,-17.7188 l 0.625,-17.6562 h -70.875 l -0.3125,-0.031 h 71.1875 l 0.031,-35.375 c -0.017,-9.7658 -7.9519,-17.6874 -17.7188,-17.6875 h -53.1562 z m 212.5937,0.031 -18.375,0.125 h -53.1563 c -9.767,10e-5 -17.7017,7.9217 -17.7187,17.6875 l 0.031,35.375 71.5,-0.031 v -17.625 c 1e-4,-9.7778 7.9386,-17.8125 17.7187,-17.8125 z m -17.7187,53.1563 -0.625,0.062 h -70.875 l 0.625,17.6562 c 0,9.769 -7.9226,17.7016 -17.6876,17.7188 v 17.7187 c 9.7649,0.017 17.6876,7.9498 17.6876,17.7188 v 53.1562 h 70.875 v -35.4375 c 0,-20.9812 -13.9343,-35.7288 -35.4688,-44.2812 21.5409,-8.5517 35.4727,-23.3276 35.4688,-44.3125 z m -177.125,124 0.5937,35.4375 c 0,9.7778 -7.939,17.7187 -17.7187,17.7187 v 17.7188 h 17.7187 53.1563 c 9.7671,-10e-5 17.7017,-7.9217 17.7187,-17.6875 l -0.625,-53.1875 z m 106.25,0.062 -0.625,53.1875 c 0.017,9.7658 7.9516,17.6874 17.7187,17.6875 h 53.1563 17.7187 v -17.7188 c -9.7799,10e-5 -17.7187,-7.9409 -17.7187,-17.7187 l 0.5937,-35.4375 z"
         style="fill:#000000;fill-opacity:1;fill-rule:nonzero;stroke:none;stroke-width:3.54330707;stroke-linecap:round;stroke-linejoin:round;stroke-miterlimit:4;stroke-opacity:1" />
      <path
         inkscape:connector-curvature="0"
         inkscape:export-ydpi="150"
         inkscape:export-xdpi="150"
         inkscape:export-filename="/Users/user/vector drawings/Typography/markus.png"
         id="path2924"
         d="m 2617.1444,1783.8968 v 17.7187 c 9.78,10e-5 17.7187,7.941 17.7187,17.7188 v 123.9688 h 70.8437 l 0.031,-141.7188 c -0.017,-9.7658 -7.9517,-17.6874 -17.7187,-17.6875 h -53.1563 z m 141.75,0 c -9.7673,0 -17.7018,7.9217 -17.7188,17.6875 v 141.7188 h 70.8438 l 0.031,-123.9688 c 0,-9.7778 7.9386,-17.7188 17.7188,-17.7188 v -17.7187 h -17.7188 z m -124.0626,159.4375 v 35.4375 c -0.01,35.4085 39.7216,53.1251 88.5938,53.125 l 0.031,0.031 c 9.7779,0 17.6876,7.9385 17.6876,17.7187 l 0.031,-17.7187 v 88.5937 l 70.8125,-0.031 0.062,-88.9063 h -0.031 v -35.125 -53.125 h -70.875 v 53.125 c -1e-4,9.7795 -7.9392,17.7188 -17.7188,17.7188 v 0.031 c -9.7795,-2e-4 -17.7186,-7.9392 -17.7188,-17.7187 v -53.1563 z m 106.3438,177.1875 h -0.031 v 17.7188 c -1e-4,9.7796 -7.9393,17.7187 -17.7188,17.7187 v 17.7188 c 48.8832,-0.01 88.5625,-17.7233 88.5625,-53.1563 z m -88.625,-17.7187 c -9.7796,0 -17.7187,7.9392 -17.7188,17.7187 0,35.433 39.6793,53.1495 88.5626,53.1563 v -17.7188 c -9.7797,0 -17.7188,-7.9391 -17.7188,-17.7187 0,-19.559 -15.8473,-35.4375 -35.4062,-35.4375 z"
         style="fill:#000000;fill-opacity:1;fill-rule:nonzero;stroke:none;stroke-width:3.54330707;stroke-linecap:round;stroke-linejoin:round;stroke-miterlimit:4;stroke-opacity:1" />
      <path
         inkscape:connector-curvature="0"
         inkscape:export-ydpi="150"
         inkscape:export-xdpi="150"
         inkscape:export-filename="/Users/user/vector drawings/Typography/markus.png"
         sodipodi:nodetypes="cssccccccccccccccc"
         id="path2442"
         d="m 283.48558,2249.9935 c -48.8977,10e-5 -88.5937,15.881 -88.5937,35.4376 0,9.7795 7.9392,17.7187 17.7187,17.7187 19.5578,0 35.4376,15.8797 35.4376,35.4375 v -35.4375 h 0.0312 l -0.0245,301.2046 c 0,9.7672 -7.9219,17.7018 -17.6876,17.7188 v 17.7187 h 17.6876 70.875 17.7187 v -17.7187 c -9.7778,-10e-5 -17.7188,-7.9387 -17.7187,-17.7188 l 0.0245,-301.2046 -0.0312,-17.7187 h -0.0313 c 0,-19.5591 -15.8473,-35.4375 -35.4063,-35.4376 z"
         style="fill:#000000;fill-opacity:1;fill-rule:nonzero;stroke:none;stroke-width:3.54330707;stroke-linecap:round;stroke-linejoin:round;stroke-miterlimit:4;stroke-opacity:1" />
      <path
         inkscape:connector-curvature="0"
         inkscape:export-ydpi="150"
         inkscape:export-xdpi="150"
         inkscape:export-filename="/Users/user/vector drawings/Typography/markus.png"
         sodipodi:nodetypes="ccccccccccscccccccccccccccccccsccccccc"
         id="path2521"
         d="m 2882.9747,1785.8529 c -9.7795,0 -17.7188,7.9392 -17.7187,17.7187 h 0.031 v 35.4375 h -0.031 c -10e-5,9.7795 7.9392,17.7187 17.7187,17.7187 v -17.7187 -17.7187 h 0.031 v 35.4374 c 19.5591,0 35.4062,-15.8786 35.4062,-35.4374 0,-9.7779 7.9386,-17.7188 17.7188,-17.7188 v -17.7187 z m 53.1875,0 v 17.7187 h 53.0938 c 9.7777,0 17.7187,7.9387 17.7187,17.7188 l -141.7188,141.7256 v 53.1563 c 0,9.7798 7.9411,17.7187 17.7188,17.7187 h 106.2992 53.1563 c 9.7795,10e-5 17.7187,-7.9393 17.7187,-17.7187 v -35.4376 c 0,-9.7793 -7.9392,-17.7186 -17.7187,-17.7187 v 17.7187 17.7188 h -0.031 v -35.4375 c -19.5591,10e-5 -35.4062,15.8783 -35.4062,35.4375 -10e-5,9.7777 -7.9387,17.7187 -17.7188,17.7188 H 2936.1 c -9.7777,0 -17.7188,-7.9387 -17.7188,-17.7188 l 141.7813,-141.7257 v -53.1562 c 0,-9.7801 -7.941,-17.7187 -17.7187,-17.7187 z"
         style="fill:#000000;fill-opacity:1;fill-rule:nonzero;stroke:none;stroke-width:3.54330707;stroke-linecap:round;stroke-linejoin:round;stroke-miterlimit:4;stroke-opacity:1" />
      <path
         inkscape:connector-curvature="0"
         inkscape:export-ydpi="150"
         inkscape:export-xdpi="150"
         inkscape:export-filename="/Users/user/vector drawings/Typography/markus.png"
         sodipodi:nodetypes="cccccccccccccccccccccccc"
         id="path2610"
         d="m 2179.1527,2249.9981 c -48.8832,0.01 -88.5625,17.7233 -88.5625,53.1562 v 283.4651 c 0,35.433 39.6793,53.1495 88.5625,53.1562 v -17.7187 c -9.7795,0 -17.7188,-7.9391 -17.7187,-17.7187 v -17.7188 -283.4651 -17.7187 c -1e-4,-9.7796 7.9392,-17.7188 17.7187,-17.7187 z m 0.031,0 v 17.7188 c 9.7794,-10e-5 17.7188,7.9391 17.7187,17.7187 v 17.7187 h -0.031 v 283.4651 h 0.031 v 17.7188 c 1e-4,9.7796 -7.9393,17.7187 -17.7187,17.7187 v 17.7187 c 48.8831,-0.01 88.5624,-17.7232 88.5624,-53.1562 v -283.4651 c 0,-35.4329 -39.6793,-53.1494 -88.5624,-53.1562 z"
         style="fill:#000000;fill-opacity:1;fill-rule:nonzero;stroke:none;stroke-width:3.54330707;stroke-linecap:round;stroke-linejoin:round;stroke-miterlimit:4;stroke-opacity:1" />
      <path
         inkscape:connector-curvature="0"
         inkscape:export-ydpi="150"
         inkscape:export-xdpi="150"
         inkscape:export-filename="/Users/user/vector drawings/Typography/markus.png"
         sodipodi:nodetypes="cccccccsccsccccccccccccccccccccccccsscccccc"
         id="path2612"
         d="m 460.68228,2249.9291 v 17.7188 c 9.7795,0 17.7187,7.9391 17.7188,17.7187 v 17.7188 h 70.8438 c 0,-35.433 -39.6794,-53.1495 -88.5626,-53.1563 z m -0.0624,0.031 c -48.8833,0.01 -88.5627,17.7231 -88.5626,53.1562 2e-4,9.7795 7.9392,17.7188 17.7188,17.7188 h 17.7188 c 19.559,0 35.4061,-15.8784 35.4062,-35.4375 0,-9.7795 7.939,-17.7188 17.7188,-17.7188 z m 0.0312,0 v 17.7187 z m 17.7188,53.1562 0.002,70.844 h 0.0312 v 17.7188 c -10e-5,9.7796 -7.9393,17.7187 -17.7188,17.7187 v 17.7188 c 48.8832,-0.01 88.5626,-17.7233 88.5626,-53.1563 l -0.002,-70.844 z m -17.7477,106.3128 c -48.8832,0.01 -88.5627,17.7232 -88.5626,53.1562 l 0.029,159.4373 c -10e-5,9.7794 7.9391,17.7187 17.7187,17.7187 h 141.6563 c 9.7801,0 17.7187,-7.941 17.7187,-17.7187 h 0.0626 v -17.7188 c 0,-9.7794 -7.939,-17.7186 -17.7188,-17.7187 h -35.4375 c -9.7796,0 -17.7188,7.9393 -17.7187,17.7187 0,9.7802 -7.941,17.7187 -17.7188,17.7188 -9.5773,-10e-5 -17.3717,-7.6213 -17.6875,-17.125 l -0.029,-142.3435 h -0.0312 v -17.6875 c -1e-4,-9.7797 7.9394,-17.7189 17.7188,-17.7188 z"
         style="fill:#000000;fill-opacity:1;fill-rule:nonzero;stroke:none;stroke-width:3.54330707;stroke-linecap:round;stroke-linejoin:round;stroke-miterlimit:4;stroke-opacity:1" />
      <path
         inkscape:connector-curvature="0"
         inkscape:export-ydpi="150"
         inkscape:export-xdpi="150"
         inkscape:export-filename="/Users/user/vector drawings/Typography/markus.png"
         sodipodi:nodetypes="csccscccccccccccccccccccccccccsccscc"
         id="path2639"
         d="m 673.21368,2250.0046 c -48.8833,0.01 -88.5625,17.7232 -88.5624,53.1563 10e-5,9.7795 7.9391,17.7188 17.7187,17.7188 h 17.7187 c 19.5592,1e-4 35.4062,-15.8785 35.4063,-35.4375 0,-9.7796 7.9391,-17.7188 17.7187,-17.7188 z m 0.0313,0 v 17.7188 c 9.7795,0 17.7188,7.9391 17.7187,17.7188 v 17.7187 l 0.0202,70.8484 v 17.7188 c 0,9.7796 -7.9392,17.7188 -17.7187,17.7188 h -35.4375 v 17.7187 h 35.4375 c 9.7795,0 17.7187,7.9391 17.7187,17.7187 v 17.7188 l -0.009,124.0323 v 17.7188 c 0,9.7796 -7.9392,17.7187 -17.7187,17.7188 v 17.7187 c 48.8832,-0.01 88.5625,-17.7233 88.5625,-53.1563 l 0.009,-124.0323 c 0,-20.9657 -13.8729,-35.7508 -35.3438,-44.3125 21.4709,-8.5617 35.3438,-23.3156 35.3438,-44.2813 l -0.0202,-70.8484 c 0,-35.433 -39.6793,-53.1495 -88.5625,-53.1563 z m -70.8639,318.9121 c -9.7796,0 -17.7186,7.9392 -17.7187,17.7187 -10e-5,35.4332 39.6791,53.1495 88.5624,53.1563 v -17.7187 c -9.7796,0 -17.7187,-7.9393 -17.7187,-17.7188 -10e-5,-19.5591 -15.8471,-35.4375 -35.4063,-35.4375 z"
         style="fill:#000000;fill-opacity:1;fill-rule:nonzero;stroke:none;stroke-width:3.54330707;stroke-linecap:round;stroke-linejoin:round;stroke-miterlimit:4;stroke-opacity:1" />
      <path
         inkscape:connector-curvature="0"
         inkscape:export-ydpi="150"
         inkscape:export-xdpi="150"
         inkscape:export-filename="/Users/user/vector drawings/Typography/markus.png"
         sodipodi:nodetypes="ccccccccccccccccccccccccccccccsccccc"
         id="path2664"
         d="m 815.00188,2250.0001 c -9.7794,10e-5 -17.7187,7.9392 -17.7187,17.7188 l -0.9376,230.315 v 0.5938 c 0.3214,9.4986 8.1135,17.125 17.6875,17.125 h 53.1875 0.9063 16.8124 c 9.7777,0 17.7188,7.9385 17.7188,17.7187 l 0.9152,70.8828 c 0,9.7777 -7.9384,17.7185 -17.7188,17.7188 v 17.6874 h 34.8126 c 0.1979,0.01 0.3942,0.031 0.5937,0.031 h 36.0625 c 0.1163,0 0.2278,-0.025 0.3438,-0.031 h 34.4687 v -17.6874 c -9.7802,-10e-5 -17.7188,-7.9411 -17.7187,-17.7188 l -0.9152,-70.8828 c -10e-5,-9.7777 7.9385,-17.7188 17.7187,-17.7187 h 17.71872 v -17.7188 h -17.71872 c -9.7802,0 -17.7188,-7.9408 -17.7187,-17.7188 l 0.9376,-212.5962 c 0,-9.7796 -7.9393,-17.7187 -17.7188,-17.7188 h -17.7188 c -19.559,10e-5 -35.4062,15.8785 -35.4062,35.4376 l -0.9376,194.8774 c 0,9.7803 -7.9411,17.7188 -17.7188,17.7188 -9.7802,0 -17.7187,-7.9408 -17.7187,-17.7188 l 0.9376,-194.8774 h -0.0313 c 0,-19.5591 -15.8472,-35.4376 -35.4062,-35.4376 z"
         style="fill:#000000;fill-opacity:1;fill-rule:nonzero;stroke:none;stroke-width:3.54330707;stroke-linecap:round;stroke-linejoin:round;stroke-miterlimit:4;stroke-opacity:1" />
      <path
         inkscape:connector-curvature="0"
         inkscape:export-ydpi="150"
         inkscape:export-xdpi="150"
         inkscape:export-filename="/Users/user/vector drawings/Typography/markus.png"
         sodipodi:nodetypes="cccccccccssccccccccccccccccccccsccsccccc"
         id="path2731"
         d="m 1062.9955,2249.998 c -9.7796,0 -17.7188,7.9393 -17.7187,17.7188 h 0.031 v 70.8551 c 0,48.8976 15.8496,88.5937 35.4062,88.5937 h 53.1563 v -17.7187 c -9.7777,0 -17.7187,-7.941 -17.7187,-17.7188 v -106.2925 c -10e-5,-9.7778 7.9409,-17.7188 17.7187,-17.7188 9.7777,0 17.7187,7.941 17.7187,17.7188 0,9.7795 7.9393,17.7187 17.7188,17.7187 h 35.4375 c 9.7796,0 17.7187,-7.9392 17.7187,-17.7187 v -17.7188 c 0,-9.7796 -7.9392,-17.7187 -17.7187,-17.7188 z m 70.9086,159.4489 v 17.7187 c 9.7794,0 17.7188,7.9392 17.7187,17.7187 v 17.7188 h -0.031 v 124.0535 h 0.031 v 17.6875 c -1e-4,9.7796 -7.9392,17.7187 -17.7187,17.7188 v 17.7187 c 48.8831,-0.01 88.5624,-17.7233 88.5624,-53.1563 v -124.0222 c 0,-35.433 -39.6793,-53.1494 -88.5624,-53.1562 z m -70.9095,159.4597 c -9.7796,0 -17.7187,7.9393 -17.7187,17.7187 -2e-4,35.4331 39.6791,53.1495 88.5624,53.1563 v -17.7187 c -9.7797,-10e-5 -17.7187,-7.9393 -17.7187,-17.7188 -10e-5,-19.5591 -15.8471,-35.4375 -35.4063,-35.4375 z m 70.875,53.1563 v 17.7187 z"
         style="fill:#000000;fill-opacity:1;fill-rule:nonzero;stroke:none;stroke-width:3.54330707;stroke-linecap:round;stroke-linejoin:round;stroke-miterlimit:4;stroke-opacity:1" />
      <path
         inkscape:connector-curvature="0"
         inkscape:export-ydpi="150"
         inkscape:export-xdpi="150"
         inkscape:export-filename="/Users/user/vector drawings/Typography/markus.png"
         sodipodi:nodetypes="csccscccccccccccccccccccccccccccccccc"
         id="path2776"
         d="m 1346.4712,2250.0002 c 48.8831,0.01 88.5625,17.7232 88.5623,53.1562 0,9.7795 -7.9391,17.7188 -17.7187,17.7188 h -17.7187 c -19.5592,0 -35.4061,-15.8784 -35.4062,-35.4375 0,-9.7795 -7.939,-17.7188 -17.7187,-17.7187 z m -0.031,0 v 17.7188 c -9.7795,-1e-4 -17.7187,7.9391 -17.7187,17.7187 v 88.5716 17.7188 c 0,9.7776 7.941,17.7188 17.7187,17.7188 v 17.7187 c -9.7777,0 -17.7187,7.9411 -17.7187,17.7187 l 0.039,141.7413 h -0.031 v 17.7188 c 0,9.7796 7.9392,17.7187 17.7187,17.7187 v 17.7187 c -48.8831,-0.01 -88.5624,-17.7232 -88.5624,-53.1562 l -0.039,-212.6163 0.031,-70.8529 c 0,-35.4329 39.6793,-53.1494 88.5625,-53.1562 z m 0.031,159.4467 c 48.883,0.01 88.5623,17.7232 88.5623,53.1562 l 0.039,124.0225 h -0.031 c 0,35.433 -39.6793,53.1495 -88.5624,53.1562 v -17.7187 c 9.7795,0 17.7188,-7.9391 17.7187,-17.7187 v -17.7188 l -0.039,-124.0225 h 0.031 v -17.7188 c 0,-9.7796 -7.9392,-17.7187 -17.7187,-17.7187 z"
         style="fill:#000000;fill-opacity:1;fill-rule:nonzero;stroke:none;stroke-width:3.54330707;stroke-linecap:round;stroke-linejoin:round;stroke-miterlimit:4;stroke-opacity:1" />
      <path
         inkscape:connector-curvature="0"
         inkscape:export-ydpi="150"
         inkscape:export-xdpi="150"
         inkscape:export-filename="/Users/user/vector drawings/Typography/markus.png"
         style="fill:#000000;fill-opacity:1;fill-rule:nonzero;stroke:none;stroke-width:3.54330707;stroke-linecap:round;stroke-linejoin:round;stroke-miterlimit:4;stroke-opacity:1"
         d="m 1966.5098,2639.775 c -48.8831,-0.01 -88.5625,-17.7232 -88.5623,-53.1562 0,-9.7795 7.9391,-17.7188 17.7187,-17.7188 h 17.7187 c 19.5592,0 35.4061,15.8784 35.4062,35.4375 0,9.7795 7.939,17.7188 17.7187,17.7187 z m 0.031,0 v -17.7188 c 9.7795,1e-4 17.7187,-7.9391 17.7187,-17.7187 v -70.855 -17.7188 c 0,-9.7776 -7.941,-17.7188 -17.7187,-17.7188 v -17.7187 c 9.7777,0 17.7187,-7.9411 17.7187,-17.7187 l -0.039,-159.4579 h 0.031 v -17.7188 c 0,-9.7796 -7.9392,-17.7187 -17.7187,-17.7187 v -17.7187 c 48.8831,0.01 88.5624,17.7232 88.5624,53.1562 l 0.039,230.3329 -0.031,53.1363 c 0,35.4329 -39.6793,53.1494 -88.5625,53.1562 z m -0.031,-141.7301 c -48.883,-0.01 -88.5623,-17.7232 -88.5623,-53.1562 l -0.039,-141.7391 h 0.031 c 0,-35.433 39.6793,-53.1495 88.5624,-53.1562 v 17.7187 c -9.7795,0 -17.7188,7.9391 -17.7187,17.7187 v 17.7188 l 0.039,141.7391 h -0.031 v 17.7188 c 0,9.7796 7.9392,17.7187 17.7187,17.7187 z"
         id="path2856"
         sodipodi:nodetypes="csccscccccccccccccccccccccccccccccccc" />
      <path
         inkscape:connector-curvature="0"
         inkscape:export-ydpi="150"
         inkscape:export-xdpi="150"
         inkscape:export-filename="/Users/user/vector drawings/Typography/markus.png"
         id="path2862"
         d="m 1753.9278,2250.0091 c -48.8831,0.01 -88.5624,17.7232 -88.5624,53.1562 v 70.8438 h 0.031 c 0,20.9745 13.92,35.7212 35.4062,44.2812 -21.508,8.5578 -35.4374,23.3256 -35.4374,44.3125 v 124.0313 h 0.031 c 0,35.433 39.6793,53.1494 88.5625,53.1562 48.8831,-0.01 88.5625,-17.7232 88.5625,-53.1562 v -124.0313 c 0,-20.9745 -13.92,-35.7211 -35.4062,-44.2812 21.508,-8.5578 35.4062,-23.3255 35.4062,-44.3125 v -70.8438 c 0,-35.433 -39.6793,-53.1494 -88.5625,-53.1562 v 17.7187 c 9.7795,0 17.7187,7.9392 17.7187,17.7188 v 17.7187 70.8438 17.7187 c 2e-4,9.7796 -7.9392,17.7188 -17.7187,17.7188 -9.7795,0 -17.7187,-7.9392 -17.7187,-17.7188 v -17.7187 -70.8438 h -0.031 v -17.7187 c 10e-5,-9.7796 7.9393,-17.7188 17.7187,-17.7188 z m 0,177.1562 c 0.011,0 0.021,0 0.031,0 9.7795,0 17.7187,7.9392 17.7187,17.7188 v 17.7187 124.0313 17.7187 c 2e-4,9.7796 -7.9392,17.7188 -17.7187,17.7188 -9.7795,0 -17.7187,-7.9392 -17.7187,-17.7188 v -17.7187 -124.0313 h -0.031 v -17.7187 c 10e-5,-9.7796 7.9393,-17.7188 17.7187,-17.7188 z"
         style="fill:#000000;fill-opacity:1;fill-rule:nonzero;stroke:none;stroke-width:3.54330707;stroke-linecap:round;stroke-linejoin:round;stroke-miterlimit:4;stroke-opacity:1" />
      <path
         inkscape:connector-curvature="0"
         inkscape:export-ydpi="150"
         inkscape:export-xdpi="150"
         inkscape:export-filename="/Users/user/vector drawings/Typography/markus.png"
         id="path2923"
         d="m 2480.325,2604.3085 c 0,19.5591 -15.874,35.4331 -35.4331,35.4331 -19.559,0 -35.433,-15.874 -35.433,-35.4331 0,-19.5591 15.874,-35.433 35.433,-35.433 19.5591,0 35.4331,15.8739 35.4331,35.433 z"
         style="fill:#000000;fill-opacity:1;fill-rule:nonzero;stroke:none;stroke-width:3.54330707;stroke-linecap:round;stroke-linejoin:round;stroke-miterlimit:4;stroke-opacity:1" />
      <path
         inkscape:connector-curvature="0"
         inkscape:export-ydpi="150"
         inkscape:export-xdpi="150"
         inkscape:export-filename="/Users/user/vector drawings/Typography/markus.png"
         id="path2930"
         d="m 2639.7679,2249.9677 c -9.7869,10e-5 -17.7188,7.9381 -17.7188,17.7188 v 177.1875 c 0,53.1496 15.8809,88.5937 35.4376,88.5937 v -0.031 c 19.5565,0 35.4376,-35.4331 35.4374,-88.5938 v -177.1562 c 0,-9.7807 -7.9318,-17.7187 -17.7187,-17.7188 z m 17.7188,318.9063 c -19.559,0 -35.4376,15.8785 -35.4376,35.4375 0,19.5591 15.8785,35.4375 35.4376,35.4375 19.5591,0 35.4374,-15.8783 35.4374,-35.4375 10e-5,-19.5591 -15.8784,-35.4375 -35.4374,-35.4375 z"
         style="fill:#000000;fill-opacity:1;fill-rule:nonzero;stroke:none;stroke-width:3.54330707;stroke-linecap:round;stroke-linejoin:round;stroke-miterlimit:4;stroke-opacity:1" />
      <path
         inkscape:connector-curvature="0"
         inkscape:export-ydpi="150"
         inkscape:export-xdpi="150"
         inkscape:export-filename="/Users/user/vector drawings/Typography/markus.png"
         id="path2943"
         d="m 2781.5105,2249.9645 c -19.559,0 -35.4063,15.8785 -35.4063,35.4375 h -0.031 c 0,19.559 15.8808,35.4062 35.4375,35.4063 v 0.031 c 9.7777,0 17.7187,7.9386 17.7187,17.7188 v 17.7187 h 17.7188 v -70.875 c 0,-19.559 -15.8473,-35.4375 -35.4062,-35.4375 v 35.4375 h -0.031 z"
         style="fill:#000000;fill-opacity:1;fill-rule:nonzero;stroke:none;stroke-width:3.54330707;stroke-linecap:round;stroke-linejoin:round;stroke-miterlimit:4;stroke-opacity:1" />
      <path
         inkscape:connector-curvature="0"
         inkscape:export-ydpi="150"
         inkscape:export-xdpi="150"
         inkscape:export-filename="/Users/user/vector drawings/Typography/markus.png"
         style="fill:#000000;fill-opacity:1;fill-rule:nonzero;stroke:none;stroke-width:3.54330707;stroke-linecap:round;stroke-linejoin:round;stroke-miterlimit:4;stroke-opacity:1"
         d="m 2870.0932,2249.9734 c -19.559,0 -35.4063,15.8785 -35.4063,35.4375 h -0.031 c 0,19.559 15.8808,35.4062 35.4375,35.4063 v 0.031 c 9.7777,0 17.7187,7.9386 17.7187,17.7188 v 17.7187 h 17.7188 v -70.875 c 0,-19.559 -15.8473,-35.4375 -35.4062,-35.4375 v 35.4375 h -0.031 z"
         id="path2960" />
      <path
         inkscape:connector-curvature="0"
         inkscape:export-ydpi="150"
         inkscape:export-xdpi="150"
         inkscape:export-filename="/Users/user/vector drawings/Typography/markus.png"
         id="path2962"
         d="m 2834.6557,2568.8978 c -19.559,0 -35.4063,15.8785 -35.4063,35.4375 h -0.031 c 0,19.559 15.8808,35.4062 35.4375,35.4063 v 0.031 c 9.7777,0 17.7187,7.9386 17.7187,17.7188 v 17.7187 h 17.7188 v -70.875 c 0,-19.559 -15.8473,-35.4375 -35.4062,-35.4375 v 35.4375 h -0.031 z"
         style="fill:#000000;fill-opacity:1;fill-rule:nonzero;stroke:none;stroke-width:3.54330707;stroke-linecap:round;stroke-linejoin:round;stroke-miterlimit:4;stroke-opacity:1" />
      <path
         inkscape:connector-curvature="0"
         inkscape:export-ydpi="150"
         inkscape:export-xdpi="150"
         inkscape:export-filename="/Users/user/vector drawings/Typography/markus.png"
         style="fill:#000000;fill-opacity:1;fill-rule:nonzero;stroke:none;stroke-width:3.54330707;stroke-linecap:round;stroke-linejoin:round;stroke-miterlimit:4;stroke-opacity:1"
         d="m 3011.8255,2356.2904 c 19.5589,0 35.4063,-15.8786 35.4063,-35.4376 h 0.031 c 0,-19.559 -15.8809,-35.4062 -35.4375,-35.4063 v -0.031 c -9.7777,0 -17.7187,-7.9386 -17.7187,-17.7188 v -17.7187 h -17.7188 v 70.875 c 0,19.559 15.8473,35.4376 35.4062,35.4376 v -35.4376 h 0.031 z"
         id="path2964" />
      <path
         inkscape:connector-curvature="0"
         inkscape:export-ydpi="150"
         inkscape:export-xdpi="150"
         inkscape:export-filename="/Users/user/vector drawings/Typography/markus.png"
         id="path2966"
         d="m 3100.4083,2356.2993 c 19.559,0 35.4062,-15.8786 35.4062,-35.4376 h 0.031 c 0,-19.5589 -15.881,-35.4062 -35.4375,-35.4063 v -0.031 c -9.7777,0 -17.7187,-7.9386 -17.7187,-17.7189 v -17.7186 h -17.7188 v 70.8749 c 0,19.559 15.8472,35.4376 35.4062,35.4376 v -35.4376 h 0.031 z"
         style="fill:#000000;fill-opacity:1;fill-rule:nonzero;stroke:none;stroke-width:3.54330707;stroke-linecap:round;stroke-linejoin:round;stroke-miterlimit:4;stroke-opacity:1" />
      <path
         inkscape:connector-curvature="0"
         id="path2516"
         d="m 442.86538,543.87111 c -19.9132,0.006 -38.3236,2.9549 -53.125,8.8438 -14.8011,-5.8707 -33.1978,-8.8125 -53.0937,-8.8125 h -88.5938 -17.6875 v 17.6875 c 9.7777,0 17.6875,7.9698 17.6875,17.75 v 53.125 h 70.875 v -53.125 c 0,-9.7796 7.9392,-17.7185 17.7188,-17.7188 v -0.0312 c 9.7795,10e-5 17.7187,7.9392 17.7187,17.7188 v 16.0312 c -0.0192,0.5446 -0.0313,1.1031 -0.0312,1.6562 l -0.0313,124.0313 h 0.0313 c -1e-4,9.7777 7.9386,17.7187 17.7187,17.7187 h 36.0313 c 9.5035,-0.316 17.1251,-8.1099 17.125,-17.6874 l 0.0312,-124.0313 c 10e-5,-0.5533 -0.0121,-1.1116 -0.0312,-1.6563 v -16.0937 c 0,-9.7585 7.9057,-17.6847 17.6562,-17.7187 v 0.0312 c 0.0211,0 0.0414,0 0.0625,0 0.0211,0 0.0415,0 0.0625,0 v -0.0312 c 9.7506,0.0341 17.6563,7.9602 17.6563,17.7187 v 53.1563 l -0.0313,141.7187 c 0.017,9.7657 7.9516,17.6875 17.7188,17.6875 h 53.1562 17.7188 v -17.7188 c -9.7802,10e-5 -17.7188,-7.941 -17.7188,-17.7187 v -123.9687 h 0.0313 v -35.4376 c 0.007,-35.3933 -39.688,-53.1096 -88.5313,-53.125 h -0.0625 z m -194.8125,88.625 -0.0312,123.9688 c 0,9.7777 -7.9386,17.7187 -17.7188,17.7188 v 17.7187 h 17.7188 53.1562 c 9.7672,0 17.7018,-7.9218 17.7188,-17.6875 v -141.7188 z"
         style="fill:#000000;fill-opacity:1;fill-rule:nonzero;stroke:none;stroke-width:3.54330707;stroke-linecap:round;stroke-linejoin:round;stroke-miterlimit:4;stroke-opacity:1"
         inkscape:export-filename="/Users/user/vector drawings/Typography/markus.png"
         inkscape:export-xdpi="150"
         inkscape:export-ydpi="150" />
      <path
         inkscape:connector-curvature="0"
         style="fill:#000000;fill-opacity:1;fill-rule:nonzero;stroke:none;stroke-width:3.54330707;stroke-linecap:round;stroke-linejoin:round;stroke-miterlimit:4;stroke-opacity:1"
         d="m 644.92128,543.90261 c -48.8977,0 -88.6007,17.7163 -88.5938,53.1562 0.002,9.7796 7.9392,17.7188 17.7188,17.7188 h 17.7187 0.0313 c 19.559,0 35.4062,-15.8785 35.4062,-35.4375 0,-9.7795 7.9392,-17.7187 17.7188,-17.7188 9.7795,10e-5 17.7187,7.9393 17.7187,17.7188 v 35.4375 c 0,9.7777 -7.9386,17.7187 -17.7187,17.7187 -48.8977,0 -88.6007,17.7053 -88.5938,53.1563 v 53.1563 c -0.007,35.4084 39.7216,53.125 88.5938,53.125 h 88.5937 17.6875 v -17.6875 c -9.7777,0 -17.6875,-7.9699 -17.6875,-17.75 v -124.0001 -35.4375 c -0.029,-35.4399 -39.6961,-53.1562 -88.5937,-53.1562 z m 0,106.3125 c 9.7795,0 17.7187,7.9392 17.7187,17.7188 v 88.5625 c 0,9.7795 -7.9392,17.7187 -17.7187,17.7187 v 0.0313 c -9.7796,0 -17.7188,-7.9393 -17.7188,-17.7188 v -88.5937 c 0,-9.7796 7.9392,-17.7188 17.7188,-17.7188 z"
         id="path2518"
         sodipodi:nodetypes="cscccssccscccccccccccccccccc"
         inkscape:export-filename="/Users/user/vector drawings/Typography/markus.png"
         inkscape:export-xdpi="150"
         inkscape:export-ydpi="150" />
      <path
         inkscape:connector-curvature="0"
         style="fill:#000000;fill-opacity:1;fill-rule:nonzero;stroke:none;stroke-width:3.54330707;stroke-linecap:round;stroke-linejoin:round;stroke-miterlimit:4;stroke-opacity:1"
         d="m 868.15168,543.90241 v 17.7187 c 9.7799,10e-5 17.7188,7.9393 17.7188,17.7188 10e-5,19.5591 15.8471,35.4376 35.4062,35.4375 h 17.7188 c 9.7796,0 17.7186,-7.9393 17.7188,-17.7188 2e-4,-35.433 -39.6794,-53.1494 -88.5626,-53.1562 z m -106.3124,0.0312 v 17.7188 c 9.7776,0 17.7187,7.9386 17.7187,17.7187 l -0.0313,124 v 53.1562 c 10e-5,9.7672 -7.9218,17.7017 -17.6874,17.7188 v 17.7187 h 17.6874 70.875 17.7188 v -17.7187 c -9.7778,0 -17.7188,-7.9386 -17.7188,-17.7188 v -53.1562 l 0.0313,-124 c 0,-9.7671 7.9217,-17.7017 17.6875,-17.7187 v -17.7188 h -17.6875 -70.875 z"
         id="path2520"
         inkscape:export-filename="/Users/user/vector drawings/Typography/markus.png"
         inkscape:export-xdpi="150"
         inkscape:export-ydpi="150" />
      <path
         inkscape:connector-curvature="0"
         inkscape:export-ydpi="150"
         inkscape:export-xdpi="150"
         inkscape:export-filename="/Users/user/vector drawings/Typography/markus.png"
         sodipodi:nodetypes="ccccccccccsccccccccccccccccccccccccccc"
         id="path2522"
         d="m 963.77578,402.16941 v 17.7187 c 9.7779,0 17.719,7.9386 17.7187,17.7188 v 318.8437 c 2e-4,9.7778 -7.9384,17.7185 -17.7187,17.7188 v 17.7187 h 17.7187 53.15632 c 9.7674,0 17.7018,-7.9217 17.7187,-17.6875 v -106.2812 c 0,-9.7795 7.9392,-17.7188 17.7188,-17.7188 9.7797,2e-4 17.7184,7.9392 17.7188,17.7188 v 106.2812 c 0.017,9.7658 7.9516,17.6874 17.7187,17.6875 h 53.1563 17.7187 v -17.7187 c -9.7799,0 -17.7188,-7.941 -17.7187,-17.7188 v -70.8125 c 0,-20.9813 -13.3093,-35.8226 -34.8438,-44.375 21.5411,-8.5516 34.8476,-23.2338 34.8438,-44.2187 l -0.031,-17.6875 c 10e-5,-9.7778 7.9386,-17.7188 17.7187,-17.7188 v -17.7187 h -17.7187 -53.1563 c -9.767,10e-5 -17.6706,7.9217 -17.6874,17.6875 v 53.1562 c 0,9.7795 -7.3144,17.6248 -17.0938,17.625 v 0.0313 h -0.6562 c -9.3027,-0.3094 -16.7846,-7.7889 -17.0938,-17.0938 v -0.5937 h -0.031 l -0.5313,-195.4063 c 2e-4,-8.2499 -5.6717,-15.1882 -13.3125,-17.1562 h -57.59382 z"
         style="fill:#000000;fill-opacity:1;fill-rule:nonzero;stroke:none;stroke-width:3.54330707;stroke-linecap:round;stroke-linejoin:round;stroke-miterlimit:4;stroke-opacity:1" />
      <path
         inkscape:connector-curvature="0"
         style="fill:#000000;fill-opacity:1;fill-rule:nonzero;stroke:none;stroke-width:3.54330707;stroke-linecap:round;stroke-linejoin:round;stroke-miterlimit:4;stroke-opacity:1"
         d="m 1194.1518,543.90481 v 17.7187 c 9.7801,10e-5 17.7188,7.9411 17.7188,17.7188 v 123.9687 h 70.8437 l 0.031,-141.7187 c -0.017,-9.7657 -7.9517,-17.6875 -17.7188,-17.6875 h -53.1562 z m 141.75,0 c -9.7671,0 -17.7017,7.9218 -17.7187,17.6875 v 141.7187 h 70.8437 l 0.031,-123.9687 c 0,-9.7777 7.9386,-17.7187 17.7187,-17.7188 v -17.7187 h -17.7187 z m -124.0625,159.4375 v 35.4375 c -0.01,35.4085 39.7216,53.125 88.5938,53.125 h 88.5937 17.6875 v -17.6875 c -9.7777,0 -17.6875,-7.9698 -17.6875,-17.75 v -53.125 h -70.875 v 53.125 c 0,9.7796 -7.9392,17.7187 -17.7187,17.7187 v 0.0313 c -9.7796,-10e-5 -17.7188,-7.9393 -17.7188,-17.7188 v -53.1562 z"
         id="path2524"
         inkscape:export-filename="/Users/user/vector drawings/Typography/markus.png"
         inkscape:export-xdpi="150"
         inkscape:export-ydpi="150" />
      <path
         inkscape:connector-curvature="0"
         inkscape:export-ydpi="150"
         inkscape:export-xdpi="150"
         inkscape:export-filename="/Users/user/vector drawings/Typography/markus.png"
         sodipodi:nodetypes="csccssccccsssscccsssccccssccccccscccscc"
         id="path2547"
         d="m 1505.9269,540.35911 c -48.8977,10e-5 -88.6741,17.7096 -88.6673,53.1496 10e-5,0.411 0.035,0.8147 0.063,1.2187 l 0.011,30.6644 c 0,35.4171 39.6454,53.1333 88.5,53.1562 0.031,0 0.062,-10e-5 0.094,0 9.7367,0.0509 17.625,7.9725 17.625,17.7187 l 0.062,-0.0313 0.042,60.2798 0.1563,0.0624 c -0.1108,1.1414 -0.1874,2.2986 -0.1875,3.4688 0,9.7687 -7.9225,17.7017 -17.6875,17.7188 -0.01,10e-5 -0.021,0 -0.031,0 -9.7649,-0.017 -17.6875,-7.9499 -17.6874,-17.7188 -10e-5,-19.5594 -15.8472,-35.4375 -35.4063,-35.4375 h -0.031 -17.7187 c -9.7795,0 -17.7167,7.9392 -17.7187,17.7187 -0.01,35.4326 39.6793,53.1488 88.5624,53.1563 0.01,10e-5 0.021,2e-4 0.031,0 47.1908,-0.007 85.7947,-16.5098 88.4063,-49.5313 l 0.1562,-0.0937 v -3.5313 l -0.011,-46.0609 c -0.011,-35.4324 -39.6793,-53.1485 -88.5625,-53.1561 -0.011,0 -0.021,0 -0.031,0 -9.7653,-0.0173 -17.6875,-7.9518 -17.6874,-17.7188 l -0.011,-49.6019 h -0.063 c 10e-5,-9.7795 7.9394,-17.7187 17.7188,-17.7187 l 0.031,-0.0313 0.031,0.0313 c 9.7794,0 17.7188,7.9392 17.7187,17.7187 0,19.5591 15.8471,35.4376 35.4063,35.4375 h 0.031 17.7187 c 9.7794,1e-4 17.7168,-7.9392 17.7187,-17.7187 0.01,-35.4401 -39.6851,-53.1495 -88.5827,-53.1496 z"
         style="fill:#000000;fill-opacity:1;fill-rule:nonzero;stroke:none;stroke-width:3.54330707;stroke-linecap:round;stroke-linejoin:round;stroke-miterlimit:4;stroke-opacity:1" />
      <path
         inkscape:connector-curvature="0"
         inkscape:export-ydpi="150"
         inkscape:export-xdpi="150"
         inkscape:export-filename="/Users/user/vector drawings/Typography/markus.png"
         style="fill:#ff0000;fill-opacity:1;fill-rule:nonzero;stroke:none;stroke-width:3.54330707;stroke-linecap:round;stroke-linejoin:round;stroke-miterlimit:4;stroke-opacity:1"
         d="m 1432.8558,898.22361 h 0.031 v -106.3125 h -0.031 z"
         id="path2576" />
      <path
         inkscape:connector-curvature="0"
         inkscape:export-ydpi="150"
         inkscape:export-xdpi="150"
         inkscape:export-filename="/Users/user/vector drawings/Typography/markus.png"
         style="fill:#000000;fill-opacity:1;fill-rule:nonzero;stroke:none;stroke-width:3.54330707;stroke-linecap:round;stroke-linejoin:round;stroke-miterlimit:4;stroke-opacity:1"
         d="m 1169.2793,1780.5071 c -48.8977,10e-5 -88.6741,17.7096 -88.6673,53.1496 10e-5,0.411 0.035,0.8147 0.063,1.2187 l 0.011,30.6644 c 0,35.4171 39.6454,53.1333 88.5,53.1562 0.031,0 0.062,-10e-5 0.094,0 9.7367,0.051 17.625,7.9725 17.625,17.7187 l 0.062,-0.031 0.042,60.2798 0.1563,0.062 c -0.1108,1.1414 -0.1874,2.2986 -0.1875,3.4688 0,9.7687 -7.9225,17.7017 -17.6875,17.7188 -0.01,10e-5 -0.021,0 -0.031,0 -9.7649,-0.017 -17.6875,-7.9499 -17.6874,-17.7188 -10e-5,-19.5594 -15.8472,-35.4375 -35.4063,-35.4375 h -0.031 -17.7187 c -9.7795,0 -17.7167,7.9392 -17.7187,17.7187 -0.01,35.4326 39.6793,53.1488 88.5624,53.1563 0.011,10e-5 0.021,2e-4 0.031,0 47.1908,-0.01 85.7947,-16.5098 88.4063,-49.5313 l 0.1562,-0.094 v -3.5313 l -0.011,-46.0609 c -0.011,-35.4324 -39.6793,-53.1485 -88.5625,-53.1561 -0.011,0 -0.021,0 -0.031,0 -9.7653,-0.017 -17.6875,-7.9518 -17.6874,-17.7188 l -0.011,-49.6019 h -0.063 c 10e-5,-9.7795 7.9394,-17.7187 17.7188,-17.7187 l 0.031,-0.031 0.031,0.031 c 9.7794,0 17.7188,7.9392 17.7187,17.7187 0,19.5591 15.8471,35.4376 35.4063,35.4375 h 0.031 17.7187 c 9.7794,10e-5 17.7168,-7.9392 17.7187,-17.7187 0.01,-35.4401 -39.6851,-53.1495 -88.5827,-53.1496 z"
         id="path2629"
         sodipodi:nodetypes="csccssccccsssscccsssccccssccccccscccscc" />
      <path
         inkscape:connector-curvature="0"
         inkscape:export-ydpi="150"
         inkscape:export-xdpi="150"
         inkscape:export-filename="/Users/user/vector drawings/Typography/markus.png"
         id="path2637"
         d="m 1700.7753,721.05831 c 0,19.559 -15.874,35.433 -35.4331,35.433 -19.559,0 -35.4331,-15.874 -35.4331,-35.433 0,-19.5591 15.8741,-35.4331 35.4331,-35.4331 19.5591,0 35.4331,15.874 35.4331,35.4331 z"
         style="fill:#000000;fill-opacity:1;fill-rule:nonzero;stroke:none;stroke-width:7.08661413;stroke-linecap:round;stroke-linejoin:round;stroke-miterlimit:4;stroke-dashoffset:0;stroke-opacity:1" />
      <path
         inkscape:connector-curvature="0"
         inkscape:export-ydpi="150"
         inkscape:export-xdpi="150"
         inkscape:export-filename="/Users/user/vector drawings/Typography/markus.png"
         style="fill:#000000;fill-opacity:1;fill-rule:nonzero;stroke:none;stroke-width:7.08661413;stroke-linecap:round;stroke-linejoin:round;stroke-miterlimit:4;stroke-dashoffset:0;stroke-opacity:1"
         d="m 1700.7753,597.04261 c 0,19.559 -15.874,35.433 -35.4331,35.433 -19.559,0 -35.4331,-15.874 -35.4331,-35.433 0,-19.5591 15.8741,-35.4331 35.4331,-35.4331 19.5591,0 35.4331,15.874 35.4331,35.4331 z"
         id="path2640" />
    </g>
  </g>
</svg>
